<?xml version="1.0" encoding="UTF-8"?>
<svg width="18px" height="16px" viewBox="0 0 18 16" version="1.1" xmlns="http://www.w3.org/2000/svg" xmlns:xlink="http://www.w3.org/1999/xlink">
  
        <path d="M7.14285714,3.15625 L17.3571429,3.15625 C17.5741228,3.15625 17.75,2.87644531 17.75,2.53125 L17.75,0.96875 C17.75,0.623554687 17.5741228,0.34375 17.3571429,0.34375 L7.14285714,0.34375 C6.92587723,0.34375 6.75,0.623554687 6.75,0.96875 L6.75,2.53125 C6.75,2.87644531 6.92587723,3.15625 7.14285714,3.15625 Z M0.875,9.40625 L17.125,9.40625 C17.4701953,9.40625 17.75,9.12644531 17.75,8.78125 L17.75,7.21875 C17.75,6.87355469 17.4701953,6.59375 17.125,6.59375 L0.875,6.59375 C0.529804687,6.59375 0.25,6.87355469 0.25,7.21875 L0.25,8.78125 C0.25,9.12644531 0.529804687,9.40625 0.875,9.40625 Z M0.875,15.65625 L17.125,15.65625 C17.4701953,15.65625 17.75,15.3764453 17.75,15.03125 L17.75,13.46875 C17.75,13.1235547 17.4701953,12.84375 17.125,12.84375 L0.875,12.84375 C0.529804687,12.84375 0.25,13.1235547 0.25,13.46875 L0.25,15.03125 C0.25,15.3764453 0.529804687,15.65625 0.875,15.65625 Z" id="path-1"></path>
</svg>