<svg xmlns="http://www.w3.org/2000/svg" viewBox="0 0 100 100"><path fill="#c7ede6" d="M87.215,55.71C88.35,53.555,89,51.105,89,48.5c0-6.621-4.159-12.257-10.001-14.478 C78.999,34.015,79,34.008,79,34c0-11.598-9.402-21-21-21c-9.784,0-17.981,6.701-20.313,15.757C36.211,28.272,34.638,28,33,28 c-7.692,0-14.023,5.793-14.89,13.252C12.906,42.353,9,46.969,9,52.5C9,58.851,14.149,64,20.5,64c0.177,0,0.352-0.012,0.526-0.022 C21.022,64.153,21,64.324,21,64.5C21,75.822,30.178,85,41.5,85c6.437,0,12.175-2.972,15.934-7.614C59.612,79.611,62.64,81,66,81 c4.65,0,8.674-2.65,10.666-6.518C77.718,74.817,78.837,75,80,75c6.075,0,11-4.925,11-11C91,60.689,89.53,57.727,87.215,55.71z"></path><path fill="#fdfcef" d="M66.5,39.5V40h-3v-0.5c0,0-4.242,0-5.5,0c-2.485,0-4.5-2.015-4.5-4.5 c0-2.333,1.782-4.229,4.055-4.455C57.533,30.364,57.5,30.187,57.5,30c0-2.485,2.015-4.5,4.5-4.5c1.438,0,2.703,0.686,3.527,1.736 C65.667,24.6,67.829,22.5,70.5,22.5c2.761,0,5,2.239,5,5c0,0.446-0.077,0.87-0.187,1.282c0.642-0.777,1.6-1.282,2.687-1.282 c1.781,0,3.234,1.335,3.455,3.055C81.636,30.533,81.813,30.5,82,30.5c2.485,0,4.5,2.015,4.5,4.5s-2.015,4.5-4.5,4.5s-9.5,0-9.5,0 H66.5z"></path><path fill="#472b29" d="M70.5,22c3.033,0,5.5,2.467,5.5,5.5c0,0.016,0,0.031,0,0.047C76.602,27.192,77.29,27,78,27 c1.831,0,3.411,1.261,3.858,3.005C81.905,30.002,81.952,30,82,30c2.757,0,5,2.243,5,5s-2.243,5-5,5H66.5 c-0.276,0-0.5-0.224-0.5-0.5s0.224-0.5,0.5-0.5H82c2.206,0,4-1.794,4-4s-1.794-4-4-4c-0.117,0-0.23,0.017-0.343,0.032 l-0.141,0.019c-0.021,0.003-0.041,0.004-0.062,0.004c-0.246,0-0.462-0.185-0.495-0.437C80.768,29.125,79.496,28,78,28 c-0.885,0-1.723,0.401-2.301,1.1c-0.098,0.118-0.241,0.182-0.386,0.182c-0.078,0-0.156-0.018-0.228-0.056 c-0.209-0.107-0.314-0.346-0.254-0.573C74.946,28.218,75,27.852,75,27.5c0-2.481-2.019-4.5-4.5-4.5 c-2.381,0-4.347,1.872-4.474,4.263c-0.011,0.208-0.15,0.387-0.349,0.45c-0.05,0.016-0.101,0.024-0.152,0.024 c-0.15,0-0.296-0.069-0.392-0.192C64.362,26.563,63.221,26,62,26c-2.206,0-4,1.794-4,4c0,0.117,0.017,0.23,0.032,0.343 l0.019,0.141c0.016,0.134-0.022,0.268-0.106,0.373c-0.084,0.105-0.207,0.172-0.34,0.185C55.549,31.247,54,32.949,54,35 c0,2.206,1.794,4,4,4h5.5c0.276,0,0.5,0.224,0.5,0.5S63.776,40,63.5,40H58c-2.757,0-5-2.243-5-5c0-2.397,1.689-4.413,4.003-4.877 C57.001,30.082,57,30.041,57,30c0-2.757,2.243-5,5-5c1.176,0,2.293,0.416,3.183,1.164C65.781,23.76,67.945,22,70.5,22L70.5,22z"></path><path fill="#472b29" d="M72,29c1.403,0,2.609,0.999,2.913,2.341C75.28,31.119,75.699,31,76.125,31 c1.202,0,2.198,0.897,2.353,2.068C78.681,33.022,78.874,33,79.063,33c1.529,0,2.811,1.2,2.918,2.732 C81.99,35.87,81.886,35.99,81.749,36c-0.006,0-0.012,0-0.018,0c-0.13,0-0.24-0.101-0.249-0.232 c-0.089-1.271-1.151-2.268-2.419-2.268c-0.229,0-0.47,0.042-0.738,0.127c-0.022,0.007-0.045,0.01-0.067,0.01 c-0.055,0-0.11-0.02-0.156-0.054C78.038,33.537,78,33.455,78,33.375c0-1.034-0.841-1.875-1.875-1.875 c-0.447,0-0.885,0.168-1.231,0.473c-0.047,0.041-0.106,0.063-0.165,0.063c-0.032,0-0.063-0.006-0.093-0.019 c-0.088-0.035-0.148-0.117-0.155-0.212C74.377,30.512,73.288,29.5,72,29.5c-0.208,0-0.425,0.034-0.682,0.107 c-0.023,0.007-0.047,0.01-0.07,0.01c-0.109,0-0.207-0.073-0.239-0.182c-0.038-0.133,0.039-0.271,0.172-0.309 C71.483,29.04,71.744,29,72,29L72,29z"></path><path fill="#fff" d="M44.5,20h-10c-0.276,0-0.5-0.224-0.5-0.5s0.224-0.5,0.5-0.5h10c0.276,0,0.5,0.224,0.5,0.5 S44.777,20,44.5,20z"></path><path fill="#fff" d="M47.5,20h-1c-0.276,0-0.5-0.224-0.5-0.5s0.224-0.5,0.5-0.5h1c0.276,0,0.5,0.224,0.5,0.5 S47.777,20,47.5,20z"></path><path fill="#fff" d="M52.491,22H43.5c-0.276,0-0.5-0.224-0.5-0.5s0.224-0.5,0.5-0.5h8.991c0.276,0,0.5,0.224,0.5,0.5 S52.767,22,52.491,22z"></path><path fill="#fff" d="M41.5,22h-1c-0.276,0-0.5-0.224-0.5-0.5s0.224-0.5,0.5-0.5h1c0.276,0,0.5,0.224,0.5,0.5 S41.777,22,41.5,22z"></path><path fill="#fff" d="M38.5,22h-2c-0.276,0-0.5-0.224-0.5-0.5s0.224-0.5,0.5-0.5h2c0.276,0,0.5,0.224,0.5,0.5 S38.777,22,38.5,22z"></path><path fill="#fff" d="M44.5,24h-2c-0.276,0-0.5-0.224-0.5-0.5s0.224-0.5,0.5-0.5h2c0.276,0,0.5,0.224,0.5,0.5 S44.776,24,44.5,24z"></path><path fill="#fff" d="M47.5,15c-0.177,0-0.823,0-1,0c-0.276,0-0.5,0.224-0.5,0.5c0,0.276,0.224,0.5,0.5,0.5 c0.177,0,0.823,0,1,0c0.276,0,0.5-0.224,0.5-0.5C48,15.224,47.776,15,47.5,15z"></path><path fill="#fff" d="M47.5,17c-0.177,0-4.823,0-5,0c-0.276,0-0.5,0.224-0.5,0.5c0,0.276,0.224,0.5,0.5,0.5 c0.177,0,4.823,0,5,0c0.276,0,0.5-0.224,0.5-0.5C48,17.224,47.776,17,47.5,17z"></path><path fill="#fff" d="M52.5,19c-0.177,0-2.823,0-3,0c-0.276,0-0.5,0.224-0.5,0.5c0,0.276,0.224,0.5,0.5,0.5 c0.177,0,2.823,0,3,0c0.276,0,0.5-0.224,0.5-0.5C53,19.224,52.776,19,52.5,19z"></path><path fill="#fff" d="M87.5,67h-10c-0.276,0-0.5-0.224-0.5-0.5s0.224-0.5,0.5-0.5h10c0.276,0,0.5,0.224,0.5,0.5 S87.776,67,87.5,67z"></path><path fill="#fff" d="M91.5,67h-2c-0.276,0-0.5-0.224-0.5-0.5s0.224-0.5,0.5-0.5h2c0.276,0,0.5,0.224,0.5,0.5 S91.776,67,91.5,67z"></path><path fill="#fff" d="M96.5,69h-10c-0.276,0-0.5-0.224-0.5-0.5s0.224-0.5,0.5-0.5h10c0.276,0,0.5,0.224,0.5,0.5 S96.777,69,96.5,69z"></path><path fill="#fff" d="M84.5,69h-1c-0.276,0-0.5-0.224-0.5-0.5s0.224-0.5,0.5-0.5h1c0.276,0,0.5,0.224,0.5,0.5 S84.776,69,84.5,69z"></path><path fill="#fff" d="M81.47,69H79.5c-0.276,0-0.5-0.224-0.5-0.5s0.224-0.5,0.5-0.5h1.97c0.276,0,0.5,0.224,0.5,0.5 S81.746,69,81.47,69z"></path><path fill="#fff" d="M90.5,65h-5c-0.276,0-0.5-0.224-0.5-0.5s0.224-0.5,0.5-0.5h5c0.276,0,0.5,0.224,0.5,0.5 S90.777,65,90.5,65z"></path><path fill="#fff" d="M87.5,71h-2c-0.276,0-0.5-0.224-0.5-0.5s0.224-0.5,0.5-0.5h2c0.276,0,0.5,0.224,0.5,0.5 S87.776,71,87.5,71z"></path><path fill="#88ae45" d="M55.5,26.5c0-0.829-2.015-1.5-4.5-1.5s-4.5,0.671-4.5,1.5c0,0.652,1,1.5,3,1.408V33h3v-5.092 C54.5,28,55.5,27.152,55.5,26.5z"></path><path fill="#472b29" d="M52.5,33.5h-3c-0.276,0-0.5-0.224-0.5-0.5v-4.589c-1.06-0.036-1.952-0.339-2.495-0.857 C46.18,27.243,46,26.868,46,26.5c0-1.374,2.592-2,5-2s5,0.626,5,2c0,0.368-0.18,0.743-0.505,1.054 c-0.543,0.519-1.435,0.821-2.495,0.857V33C53,33.276,52.776,33.5,52.5,33.5z M50,32.5h2v-4.592c0-0.137,0.056-0.267,0.155-0.361 c0.099-0.095,0.235-0.146,0.368-0.138c1.486,0.067,2.121-0.425,2.281-0.578C54.948,26.693,55,26.569,55,26.5c0-0.257-1.375-1-4-1 s-4,0.743-4,1c0,0.069,0.052,0.193,0.196,0.331c0.16,0.153,0.809,0.65,2.281,0.578c0.135-0.009,0.269,0.043,0.368,0.138 C49.944,27.641,50,27.771,50,27.908V32.5z"></path><path fill="#88ae45" d="M52.5,73.092V68h-3v5.092c-2-0.092-3,0.756-3,1.408c0,0.828,2.015,1.5,4.5,1.5s4.5-0.672,4.5-1.5 C55.5,73.848,54.5,73,52.5,73.092z"></path><path fill="#472b29" d="M51,76.5c-2.408,0-5-0.626-5-2c0-0.368,0.18-0.743,0.505-1.054 c0.543-0.519,1.435-0.821,2.495-0.857V68c0-0.276,0.224-0.5,0.5-0.5h3c0.276,0,0.5,0.224,0.5,0.5v4.589 c1.06,0.036,1.952,0.339,2.495,0.857C55.82,73.757,56,74.132,56,74.5C56,75.874,53.408,76.5,51,76.5z M49.203,73.585 c-1.289,0-1.857,0.441-2.006,0.584C47.052,74.307,47,74.431,47,74.5c0,0.257,1.375,1,4,1s4-0.743,4-1 c0-0.069-0.052-0.193-0.196-0.331c-0.16-0.153-0.804-0.644-2.281-0.578c-0.135,0.007-0.27-0.043-0.368-0.138 C52.056,73.359,52,73.229,52,73.092V68.5h-2v4.592c0,0.137-0.056,0.267-0.155,0.361c-0.099,0.095-0.231,0.146-0.368,0.138 C49.382,73.587,49.291,73.585,49.203,73.585z"></path><path fill="#88ae45" d="M75,46c-0.652,0-1.202,1.256-1.408,3H68.5v3h5.092c0.207,1.744,0.756,3,1.408,3 c0.828,0,1.5-2.015,1.5-4.5S75.828,46,75,46z"></path><path fill="#472b29" d="M75,55.5c-0.872,0-1.548-1.112-1.844-3H68.5c-0.276,0-0.5-0.224-0.5-0.5v-3 c0-0.276,0.224-0.5,0.5-0.5h4.656c0.296-1.888,0.973-3,1.844-3c1.374,0,2,2.592,2,5S76.374,55.5,75,55.5z M69,51.5h4.592 c0.253,0,0.467,0.189,0.497,0.441C74.315,53.86,74.871,54.5,75,54.5c0.257,0,1-1.375,1-4s-0.743-4-1-4 c-0.129,0-0.685,0.64-0.912,2.559c-0.03,0.252-0.243,0.441-0.497,0.441H69V51.5z"></path><path fill="#88ae45" d="M33.5,49h-5.092c-0.207-1.744-0.756-3-1.408-3c-0.828,0-1.5,2.015-1.5,4.5S26.172,55,27,55 c0.652,0,1.202-1.256,1.408-3H33.5V49z"></path><path fill="#472b29" d="M27,55.5c-1.374,0-2-2.592-2-5s0.626-5,2-5c0.872,0,1.548,1.112,1.844,3H33.5 c0.276,0,0.5,0.224,0.5,0.5v3c0,0.276-0.224,0.5-0.5,0.5h-4.656C28.548,54.388,27.872,55.5,27,55.5z M27,46.5 c-0.257,0-1,1.375-1,4s0.743,4,1,4c0.129,0,0.685-0.64,0.912-2.559c0.03-0.252,0.243-0.441,0.497-0.441H33v-2h-4.592 c-0.253,0-0.467-0.189-0.497-0.441C27.685,47.14,27.129,46.5,27,46.5z"></path><circle cx="51" cy="50.5" r="19.5" fill="#88ae45"></circle><path fill="#472b29" d="M51,70.5c-11.028,0-20-8.972-20-20s8.972-20,20-20s20,8.972,20,20S62.028,70.5,51,70.5z M51,31.5 c-10.477,0-19,8.523-19,19s8.523,19,19,19s19-8.523,19-19S61.477,31.5,51,31.5z"></path><g><path fill="#88ae45" d="M69.031,32.469c-1.757-1.757-3.657-2.707-4.243-2.121c-0.461,0.461,0.039,1.738,1.126,3.117 l-3.6,3.601l2.121,2.121l3.6-3.6c1.379,1.087,2.656,1.586,3.117,1.125C71.738,36.125,70.789,34.226,69.031,32.469z"></path></g><g><path fill="#472b29" d="M64.435,39.686c-0.128,0-0.256-0.049-0.354-0.146c-0.195-0.195-0.195-0.512,0-0.707l3.601-3.6 c0.179-0.18,0.463-0.196,0.663-0.039c1.519,1.197,2.362,1.255,2.454,1.165c0.182-0.182-0.265-1.68-2.121-3.536 c-1.857-1.857-3.354-2.303-3.536-2.121c-0.091,0.091-0.031,0.937,1.165,2.454c0.157,0.199,0.14,0.484-0.039,0.663l-3.601,3.601 c-0.195,0.195-0.512,0.195-0.707,0s-0.195-0.512,0-0.707l3.292-3.292c-1.125-1.544-1.433-2.809-0.817-3.425 c0.971-0.971,3.247,0.418,4.95,2.121s3.093,3.978,2.121,4.95c-0.615,0.616-1.88,0.309-3.425-0.817l-3.292,3.292 C64.691,39.637,64.563,39.686,64.435,39.686z"></path></g><g><path fill="#88ae45" d="M39.686,63.935l-2.121-2.121l-3.601,3.6c-1.379-1.087-2.656-1.587-3.117-1.125 c-0.586,0.586,0.364,2.485,2.121,4.243c1.757,1.757,3.657,2.707,4.243,2.121c0.461-0.461-0.039-1.738-1.126-3.117L39.686,63.935z"></path></g><g><path fill="#472b29" d="M36.718,71.327c-1.134,0-2.789-1.128-4.103-2.442c-1.703-1.703-3.093-3.978-2.121-4.95 c0.615-0.617,1.881-0.309,3.425,0.817l3.292-3.292c0.195-0.195,0.512-0.195,0.707,0s0.195,0.512,0,0.707l-3.601,3.601 c-0.18,0.179-0.465,0.196-0.663,0.039c-1.519-1.197-2.361-1.254-2.454-1.165c-0.182,0.182,0.265,1.68,2.121,3.536 c1.857,1.857,3.352,2.302,3.536,2.121c0.091-0.091,0.032-0.936-1.165-2.454c-0.157-0.199-0.14-0.484,0.039-0.663l3.601-3.601 c0.195-0.195,0.512-0.195,0.707,0s0.195,0.512,0,0.707l-3.292,3.292c1.126,1.544,1.434,2.809,0.817,3.425 C37.343,71.228,37.053,71.327,36.718,71.327z"></path></g><g><path fill="#88ae45" d="M39.686,37.065l-3.6-3.601c1.087-1.379,1.587-2.656,1.126-3.117 c-0.586-0.586-2.485,0.364-4.243,2.121c-1.757,1.757-2.707,3.657-2.121,4.243c0.461,0.461,1.738-0.039,3.117-1.125l3.601,3.6 L39.686,37.065z"></path></g><g><path fill="#88ae45" d="M71.153,64.288c-0.461-0.461-1.738,0.039-3.117,1.125l-3.6-3.6l-2.121,2.121l3.6,3.601 c-1.087,1.379-1.587,2.656-1.126,3.117c0.586,0.586,2.485-0.364,4.243-2.121C70.789,66.774,71.738,64.874,71.153,64.288z"></path></g><g><ellipse cx="51.5" cy="38" fill="#6f913d" rx="4" ry="3"></ellipse><path fill="#472b29" d="M51.5,41.5c-2.481,0-4.5-1.57-4.5-3.5s2.019-3.5,4.5-3.5S56,36.07,56,38S53.981,41.5,51.5,41.5z M51.5,35.5c-1.93,0-3.5,1.122-3.5,2.5s1.57,2.5,3.5,2.5S55,39.378,55,38S53.43,35.5,51.5,35.5z"></path></g><g><ellipse cx="53.5" cy="64" fill="#6f913d" rx="4" ry="3"></ellipse><path fill="#472b29" d="M53.5,67.5c-2.481,0-4.5-1.57-4.5-3.5s2.019-3.5,4.5-3.5S58,62.07,58,64S55.981,67.5,53.5,67.5z M53.5,61.5c-1.93,0-3.5,1.122-3.5,2.5s1.57,2.5,3.5,2.5S57,65.378,57,64S55.43,61.5,53.5,61.5z"></path></g><g><ellipse cx="65.027" cy="54.607" fill="#6f913d" rx="4" ry="3" transform="rotate(-75.072 65.029 54.61)"></ellipse><path fill="#472b29" d="M64.595,59.05c-0.244,0-0.487-0.032-0.727-0.096l0,0c-1.865-0.497-2.862-2.852-2.223-5.25 c0.639-2.398,2.675-3.944,4.542-3.446c1.864,0.498,2.861,2.853,2.222,5.25c-0.303,1.136-0.925,2.12-1.751,2.771 C66.012,58.787,65.3,59.05,64.595,59.05z M65.46,51.164c-1.196,0-2.409,1.151-2.849,2.799c-0.497,1.865,0.183,3.67,1.515,4.026 l0,0c0.618,0.163,1.297-0.011,1.913-0.495c0.658-0.518,1.156-1.314,1.404-2.243c0.497-1.865-0.183-3.671-1.514-4.026 C65.774,51.184,65.618,51.164,65.46,51.164z"></path></g><g><circle cx="42.5" cy="45" r="4" fill="#6f913d"></circle></g><g><circle cx="59.5" cy="45" r="4" fill="#6f913d"></circle></g><g><circle cx="51.5" cy="53" r="4" fill="#6f913d"></circle></g><g><path fill="#472b29" d="M37.565,39.686c-0.128,0-0.256-0.049-0.354-0.146l-3.292-3.292 c-1.544,1.126-2.81,1.433-3.425,0.817c-0.972-0.972,0.418-3.247,2.121-4.95c1.703-1.703,3.979-3.093,4.95-2.121 c0.617,0.616,0.309,1.88-0.817,3.425l3.292,3.292c0.195,0.195,0.195,0.512,0,0.707s-0.512,0.195-0.707,0l-3.601-3.601 c-0.179-0.179-0.196-0.464-0.039-0.663c1.196-1.518,1.256-2.362,1.165-2.454c-0.181-0.179-1.679,0.264-3.536,2.121 c-1.856,1.856-2.303,3.354-2.121,3.536c0.093,0.091,0.935,0.033,2.454-1.165c0.199-0.156,0.484-0.14,0.663,0.039l3.601,3.6 c0.195,0.195,0.195,0.512,0,0.707C37.821,39.637,37.693,39.686,37.565,39.686z"></path></g><g><path fill="#472b29" d="M65.282,71.327c-0.335,0-0.625-0.099-0.847-0.321c-0.616-0.616-0.309-1.881,0.817-3.425 l-3.292-3.292c-0.195-0.195-0.195-0.512,0-0.707s0.512-0.195,0.707,0l3.601,3.601c0.179,0.179,0.196,0.464,0.039,0.663 c-1.196,1.518-1.256,2.362-1.165,2.454c0.183,0.183,1.678-0.264,3.536-2.121c1.856-1.856,2.303-3.354,2.121-3.536 c-0.091-0.09-0.935-0.032-2.454,1.165c-0.199,0.157-0.483,0.141-0.663-0.039l-3.601-3.601c-0.195-0.195-0.195-0.512,0-0.707 s0.512-0.195,0.707,0l3.292,3.292c1.543-1.125,2.81-1.433,3.425-0.817c0.972,0.972-0.418,3.247-2.121,4.95 C68.071,70.199,66.416,71.326,65.282,71.327z"></path></g><g><ellipse cx="39.373" cy="54.866" fill="#6f913d" rx="3" ry="4" transform="rotate(-20.339 39.368 54.86)"></ellipse><path fill="#472b29" d="M39.968,59.258c-1.558,0-3.165-1.253-3.877-3.175c-0.409-1.103-0.469-2.266-0.17-3.274 c0.314-1.06,0.985-1.828,1.887-2.162c1.811-0.669,3.984,0.676,4.846,3.003c0.863,2.326,0.092,4.765-1.717,5.436l0,0 C40.622,59.202,40.296,59.258,39.968,59.258z M40.763,58.617h0.01H40.763z M38.796,51.471c-0.218,0-0.433,0.037-0.64,0.113 c-0.6,0.223-1.053,0.758-1.276,1.509c-0.238,0.802-0.185,1.74,0.149,2.642c0.67,1.81,2.27,2.892,3.561,2.413l0,0 c1.292-0.479,1.798-2.342,1.127-4.151C41.154,52.478,39.937,51.471,38.796,51.471z"></path></g><g><path fill="#472b29" d="M49.118,56.714c-0.104,0-0.208-0.032-0.297-0.099C47.681,55.77,47,54.418,47,53 c0-0.567,0.104-1.121,0.31-1.645c0.101-0.258,0.392-0.382,0.648-0.283c0.257,0.101,0.384,0.391,0.283,0.648 C48.081,52.128,48,52.558,48,53c0,1.119,0.517,2.145,1.417,2.813c0.222,0.165,0.268,0.478,0.104,0.699 C49.422,56.645,49.271,56.714,49.118,56.714z"></path></g><g><path fill="#472b29" d="M51.5,57.5c-0.276,0-0.5-0.224-0.5-0.5s0.224-0.5,0.5-0.5c1.93,0,3.5-1.57,3.5-3.5 s-1.57-3.5-3.5-3.5c-0.6,0-1.191,0.154-1.711,0.446c-0.239,0.135-0.545,0.05-0.681-0.191c-0.135-0.241-0.05-0.545,0.191-0.681 c0.668-0.375,1.429-0.574,2.2-0.574c2.481,0,4.5,2.019,4.5,4.5S53.981,57.5,51.5,57.5z"></path></g><g><path fill="#472b29" d="M59.5,49.5c-2.481,0-4.5-2.019-4.5-4.5c0-1.358,0.604-2.63,1.658-3.489 c0.215-0.175,0.53-0.142,0.704,0.072c0.174,0.214,0.142,0.529-0.072,0.704C56.47,42.954,56,43.943,56,45c0,1.93,1.57,3.5,3.5,3.5 S63,46.93,63,45s-1.57-3.5-3.5-3.5c-0.276,0-0.5-0.224-0.5-0.5s0.224-0.5,0.5-0.5c2.481,0,4.5,2.019,4.5,4.5 S61.981,49.5,59.5,49.5z"></path></g><g><path fill="#472b29" d="M42.5,49.5c-2.481,0-4.5-2.019-4.5-4.5c0-0.276,0.224-0.5,0.5-0.5S39,44.724,39,45 c0,1.93,1.57,3.5,3.5,3.5S46,46.93,46,45s-1.57-3.5-3.5-3.5c-1.065,0-2.061,0.477-2.729,1.308 c-0.173,0.215-0.487,0.25-0.703,0.076c-0.215-0.173-0.249-0.488-0.076-0.703c0.86-1.068,2.138-1.681,3.508-1.681 c2.481,0,4.5,2.019,4.5,4.5S44.981,49.5,42.5,49.5z"></path></g><g><path fill="#fdfcef" d="M27.5,71.5c0,0-1.567,0-3.5,0s-3.5-1.567-3.5-3.5c0-1.781,1.335-3.234,3.055-3.455 C23.527,64.366,23.5,64.187,23.5,64c0-1.933,1.567-3.5,3.5-3.5c1.032,0,1.95,0.455,2.59,1.165 c0.384-1.808,1.987-3.165,3.91-3.165c2.209,0,4,1.791,4,4c0,0.191-0.03,0.374-0.056,0.558C37.872,62.714,38.408,62.5,39,62.5 c1.228,0,2.245,0.887,2.455,2.055C41.634,64.527,41.813,64.5,42,64.5c1.933,0,3.5,1.567,3.5,3.5s-1.567,3.5-3.5,3.5s-7.5,0-7.5,0 V72h-7V71.5z"></path><path fill="#472b29" d="M25.75,67c0.138,0,0.25-0.112,0.25-0.25c0-1.223-0.995-2.218-2.218-2.218 c-0.034,0.009-0.737-0.001-1.244,0.136c-0.133,0.036-0.212,0.173-0.176,0.306c0.036,0.134,0.173,0.213,0.306,0.176 c0.444-0.12,1.1-0.12,1.113-0.118c0.948,0,1.719,0.771,1.719,1.718C25.5,66.888,25.612,67,25.75,67z"></path><circle cx="32.5" cy="71.5" r=".5" fill="#472b29"></circle><path fill="#472b29" d="M24,72h3.5c0.276,0,0.5-0.224,0.5-0.5S27.776,71,27.5,71H24c-1.654,0-3-1.346-3-3 c0-1.496,1.125-2.768,2.618-2.959c0.134-0.018,0.255-0.088,0.336-0.196s0.115-0.244,0.094-0.377C24.025,64.314,24,64.16,24,64 c0-1.654,1.346-3,3-3c0.85,0,1.638,0.355,2.219,1c0.125,0.139,0.321,0.198,0.5,0.148c0.182-0.049,0.321-0.195,0.36-0.379 C30.42,60.165,31.859,59,33.5,59c1.93,0,3.5,1.57,3.5,3.5c0,0.143-0.021,0.28-0.041,0.418c-0.029,0.203,0.063,0.438,0.242,0.54 c0.179,0.102,0.396,0.118,0.556-0.01C38.122,63.155,38.551,63,39,63c0.966,0,1.792,0.691,1.963,1.644 c0.048,0.267,0.296,0.446,0.569,0.405C41.686,65.025,41.84,65,42,65c1.654,0,3,1.346,3,3s-1.346,3-3,3h-7.5 c-0.276,0-0.5,0.224-0.5,0.5s0.224,0.5,0.5,0.5H42c2.206,0,4-1.794,4-4s-1.794-4-4-4c-0.059,0-0.116,0.002-0.174,0.006 C41.412,62.82,40.289,62,39,62c-0.349,0-0.689,0.061-1.011,0.18C37.824,59.847,35.874,58,33.5,58 c-1.831,0-3.466,1.127-4.153,2.774C28.667,60.276,27.845,60,27,60c-2.206,0-4,1.794-4,4c0,0.048,0.001,0.095,0.004,0.142 C21.261,64.59,20,66.169,20,68C20,70.206,21.794,72,24,72z"></path><path fill="#472b29" d="M29.5,71c0.159,0,0.841,0,1,0c0.276,0,0.5,0.224,0.5,0.5c0,0.276-0.224,0.5-0.5,0.5 c-0.159,0-0.841,0-1,0c-0.276,0-0.5-0.224-0.5-0.5C29,71.224,29.224,71,29.5,71z"></path></g></svg>
