<?xml version="1.0" encoding="UTF-8"?>
<svg width="17px" height="24px" viewBox="0 0 17 24" version="1.1" xmlns="http://www.w3.org/2000/svg" xmlns:xlink="http://www.w3.org/1999/xlink">
    <title>file-user</title>
      <path d="M17.0000033,6.0000035 L12.0416639,6.0000035 C11.6504625,6.0000035 11.3333311,5.66421564 11.3333311,5.25000244 L11.3333311,3.50494009e-06 L1.06250582,3.50494009e-06 C0.781417734,-0.000739812955 0.511562174,0.116774541 0.312304735,0.326698093 C0.113047297,0.536621645 0.000710250556,0.821758405 3.31022151e-06,1.11938106 L3.31022151e-06,22.874987 C-0.000698712302,23.1726097 0.110287077,23.458339 0.308548229,23.6693175 C0.50680938,23.8802959 0.776105234,23.999241 1.05719333,23.9999896 L15.9374942,23.9999896 C16.2185823,24.0007329 16.4884379,23.8832185 16.6876953,23.673295 C16.8869527,23.4633714 16.9992898,23.1782347 17.0000033,22.880612 L17.0000033,6.0000035 Z M8.50000002,8.99999916 C10.0648056,8.99999916 11.3333311,10.3431437 11.3333311,11.9999992 C11.3333311,13.6568493 10.0648056,14.9999992 8.50000002,14.9999992 C6.93519445,14.9999992 5.66666889,13.6568493 5.66666889,11.9999992 C5.66666889,10.3431437 6.93519445,8.99999916 8.50000002,8.99999916 Z M13.4583295,20.0999894 C13.4583295,20.5973327 13.0156215,20.9999926 12.4666636,20.9999926 L4.53333645,20.9999926 C3.98437854,20.9999926 3.54167055,20.596864 3.54167055,20.0999894 L3.54167055,19.1999902 C3.54167055,17.7088978 4.87377889,16.4999926 6.51224115,16.4999926 L6.73359514,16.4999926 C7.86229149,17.0001571 9.13328146,17.0001571 10.2619778,16.4999926 L10.4833318,16.4999926 C12.1262211,16.4999926 13.4583295,17.7088978 13.4583295,19.1999902 L13.4583295,20.0999894 Z" id="Shape" fill="#2E2E2E"></path>
                            <path d="M16.6776316,4.92188016 L12.1690789,0.328131638 C11.9612478,0.117320744 11.6795933,-0.000725609743 11.3861842,3.35619237e-06 L11.1052632,3.35619237e-06 L11.1052632,5.25000506 C11.1052632,5.66421849 11.4351586,6.00000336 11.8421053,6.00000336 L17,6.00000336 L17,5.71406741 C17,5.41694075 16.8840441,5.13198228 16.6776316,4.92188016 Z M8.15789474,15.0000039 C9.78568137,15.0000039 11.1052632,13.6568566 11.1052632,12.0000039 C11.1052632,10.3431492 9.78568137,9.00000385 8.15789474,9.00000385 C6.53010811,9.00000385 5.21052632,10.3431492 5.21052632,12.0000039 C5.21052632,13.6568566 6.53010811,15.0000039 8.15789474,15.0000039 Z M10.2210526,16.5000014 L9.99078947,16.5000014 C8.8166648,17.0001662 7.49451941,17.0001662 6.32039474,16.5000014 L6.09013158,16.5000014 C4.38618421,16.5000014 3,17.7089073 3,19.2000006 L3,20.1000003 C3,20.5968751 3.46052632,21.0000014 4.03157895,21.0000014 L12.2842105,21.0000014 C12.8538816,21.0000014 13.3157895,20.5973439 13.3157895,20.1000003 L13.3157895,19.2000006 C13.3157895,17.7089073 11.9300658,16.5000014 10.2210526,16.5000014 Z" id="Shape" fill="#979797"></path>
                       
</svg>