<?xml version="1.0" encoding="UTF-8"?>
<svg width="1527px" height="185px" viewBox="0 0 1527 185" version="1.1" xmlns="http://www.w3.org/2000/svg" xmlns:xlink="http://www.w3.org/1999/xlink">
    <title>Group 12</title>
    <g id="Welcome" stroke="none" stroke-width="1" fill="none" fill-rule="evenodd">
        <g id="Group-12">
            <rect id="Rectangle" fill="#007BFF" x="0" y="0" width="1527" height="185"></rect>
            <path d="M1421.12474,108.694932 L1419.2295,108.694932 C1414.7713,108.694932 1412.53829,103.859744 1415.69078,101.031854 L1417.03246,99.82972 C1417.66459,99.2626747 1417.91147,98.4361881 1417.68009,97.6615897 C1417.44871,96.8869914 1416.77424,96.2819612 1415.91073,96.0744082 C1415.04722,95.8668552 1414.12587,96.0883116 1413.49373,96.655357 L1412.15362,97.8588937 C1409.00114,100.686784 1403.61095,98.683695 1403.61095,94.6845306 L1403.61095,92.9844299 C1403.61095,91.7449055 1402.49078,90.7400725 1401.10898,90.7400725 C1399.72718,90.7400725 1398.60701,91.7449055 1398.60701,92.9844299 L1398.60701,94.6845306 C1398.60701,98.683695 1393.21683,100.686784 1390.06435,97.8588937 L1388.72423,96.655357 C1387.74704,95.7787809 1386.1627,95.7787809 1385.18551,96.655357 C1384.20832,97.5319331 1384.20832,98.9531439 1385.18551,99.82972 L1386.52719,101.031854 C1389.67967,103.859744 1387.44667,108.694932 1382.98847,108.694932 L1381.09323,108.694932 C1379.71143,108.694932 1378.59126,109.699765 1378.59126,110.939289 C1378.59126,112.178814 1379.71143,113.183647 1381.09323,113.183647 L1382.98847,113.183647 C1387.44667,113.183647 1389.67967,118.018834 1386.52719,120.846724 L1385.18551,122.048858 C1384.55338,122.615904 1384.3065,123.44239 1384.53788,124.216989 C1384.76926,124.991587 1385.44373,125.596617 1386.30724,125.80417 C1387.17075,126.011723 1388.0921,125.790267 1388.72423,125.223221 L1390.06435,124.019685 C1393.21683,121.191794 1398.60701,123.194883 1398.60701,127.194048 L1398.60701,128.894148 C1398.60701,130.133673 1399.72718,131.138506 1401.10898,131.138506 C1402.49078,131.138506 1403.61095,130.133673 1403.61095,128.894148 L1403.61095,127.194048 C1403.61095,123.194883 1409.00114,121.191794 1412.15362,124.019685 L1413.49373,125.223221 C1414.12587,125.790267 1415.04722,126.011723 1415.91073,125.80417 C1416.77424,125.596617 1417.44871,124.991587 1417.68009,124.216989 C1417.91147,123.44239 1417.66459,122.615904 1417.03246,122.048858 L1415.69078,120.846724 C1412.53829,118.018834 1414.7713,113.183647 1419.2295,113.183647 L1421.12474,113.183647 C1422.50654,113.183647 1423.62671,112.178814 1423.62671,110.939289 C1423.62671,109.699765 1422.50654,108.694932 1421.12474,108.694932 Z M1398.24408,113.900517 C1395.41767,113.900517 1393.12641,111.797378 1393.12641,109.203024 C1393.12641,106.608671 1395.41767,104.505532 1398.24408,104.505532 C1401.07048,104.505532 1403.36174,106.608671 1403.36174,109.203024 C1403.36174,111.797378 1401.07048,113.900517 1398.24408,113.900517 Z M1377.52142,89.1701737 L1380.01969,89.1701737 C1381.84087,89.1701737 1383.31723,87.8383938 1383.31723,86.1955601 C1383.31723,84.5527264 1381.84087,83.2209466 1380.01969,83.2209466 L1377.52142,83.2209466 C1371.64677,83.2209466 1368.70171,76.8059337 1372.85726,73.0629132 L1374.62429,71.4675274 C1375.90436,70.3045338 1375.90047,68.4266348 1374.61559,67.267964 C1373.33071,66.1092932 1371.24895,66.1064073 1369.96012,67.2615103 L1368.19309,68.8555015 C1364.03755,72.6041003 1356.93231,69.9502374 1356.93231,64.6480898 L1356.93231,62.3944679 C1356.93231,60.7516342 1355.45595,59.4198543 1353.63477,59.4198543 C1351.81359,59.4198543 1350.33724,60.7516342 1350.33724,62.3944679 L1350.33724,64.6480898 C1350.33724,69.9474483 1343.22581,72.6041003 1339.07645,68.8555015 L1337.30942,67.2615103 C1336.0206,66.1064073 1333.93883,66.1092932 1332.65395,67.267964 C1331.36907,68.4266348 1331.36518,70.3045338 1332.64525,71.4675274 L1334.41229,73.0629132 C1338.56783,76.811512 1335.62587,83.2209466 1329.74812,83.2209466 L1327.24985,83.2209466 C1325.42867,83.2209466 1323.95231,84.5527264 1323.95231,86.1955601 C1323.95231,87.8383938 1325.42867,89.1701737 1327.24985,89.1701737 L1329.74812,89.1701737 C1335.62278,89.1701737 1338.56783,95.5851865 1334.41229,99.3282071 L1332.64525,100.922198 C1331.81208,101.67378 1331.48669,102.769234 1331.79165,103.795914 C1332.09661,104.822594 1332.9856,105.624522 1334.12373,105.89962 C1335.26187,106.174718 1336.47625,105.881192 1337.30942,105.12961 L1339.07645,103.535619 C1343.232,99.78702 1350.33724,102.440883 1350.33724,107.74303 L1350.33724,109.996652 C1350.33724,111.639486 1351.81359,112.971266 1353.63477,112.971266 C1355.45595,112.971266 1356.93231,111.639486 1356.93231,109.996652 L1356.93231,107.74303 C1356.93231,102.443672 1364.04373,99.78702 1368.19309,103.535619 L1369.96012,105.12961 C1371.2481,106.291455 1373.33632,106.291455 1374.62429,105.12961 C1375.91226,103.967765 1375.91226,102.084043 1374.62429,100.922198 L1372.85726,99.3282071 C1368.70171,95.5796083 1371.64368,89.1701737 1377.52142,89.1701737 Z M1349.23456,86.7158991 C1346.40816,86.7158991 1344.1169,84.6127602 1344.1169,82.0184068 C1344.1169,79.4240535 1346.40816,77.3209146 1349.23456,77.3209146 C1352.06097,77.3209146 1354.35223,79.4240535 1354.35223,82.0184068 C1354.35223,84.6127602 1352.06097,86.7158991 1349.23456,86.7158991 Z M1360.88152,90.6705225 C1359.46831,90.6705225 1358.32268,89.6189531 1358.32268,88.3217764 C1358.32268,87.0245997 1359.46831,85.9730303 1360.88152,85.9730303 C1362.29472,85.9730303 1363.44035,87.0245997 1363.44035,88.3217764 C1363.44035,89.6189531 1362.29472,90.6705225 1360.88152,90.6705225 Z" id="Shape" fill-opacity="0.29" fill="#FFFFFF" fill-rule="nonzero" transform="translate(1373.789512, 95.279180) rotate(-144.000000) translate(-1373.789512, -95.279180) "></path>
            <path d="M801.49412,99.5352994 L800.374204,99.5352994 C797.739815,99.5352994 796.42031,96.7241439 798.283141,95.0800216 L799.075952,94.3811066 C799.449485,94.051429 799.595366,93.5709136 799.458644,93.1205657 C799.321921,92.6702178 798.923367,92.3184561 798.413112,92.1977857 C797.902857,92.0771154 797.358421,92.2058691 796.984888,92.5355467 L796.193001,93.2352773 C794.330171,94.8793996 791.145064,93.714813 791.145064,91.3897174 L791.145064,90.4012867 C791.145064,89.680633 790.483145,89.0964278 789.666627,89.0964278 C788.850109,89.0964278 788.18819,89.680633 788.18819,90.4012867 L788.18819,91.3897174 C788.18819,93.714813 785.003083,94.8793996 783.140253,93.2352773 L782.348366,92.5355467 C781.770934,92.0259094 780.834733,92.0259094 780.257302,92.5355467 C779.67987,93.045184 779.67987,93.8714693 780.257302,94.3811066 L781.050113,95.0800216 C782.912944,96.7241439 781.593439,99.5352994 778.95905,99.5352994 L777.839134,99.5352994 C777.022616,99.5352994 776.360697,100.119505 776.360697,100.840158 C776.360697,101.560812 777.022616,102.145017 777.839134,102.145017 L778.95905,102.145017 C781.593439,102.145017 782.912944,104.956173 781.050113,106.600295 L780.257302,107.29921 C779.883769,107.628888 779.737888,108.109403 779.87461,108.559751 C780.011333,109.010099 780.409887,109.361861 780.920142,109.482531 C781.430397,109.603201 781.974833,109.474448 782.348366,109.14477 L783.140253,108.44504 C785.003083,106.800917 788.18819,107.965504 788.18819,110.290599 L788.18819,111.27903 C788.18819,111.999684 788.850109,112.583889 789.666627,112.583889 C790.483145,112.583889 791.145064,111.999684 791.145064,111.27903 L791.145064,110.290599 C791.145064,107.965504 794.330171,106.800917 796.193001,108.44504 L796.984888,109.14477 C797.358421,109.474448 797.902857,109.603201 798.413112,109.482531 C798.923367,109.361861 799.321921,109.010099 799.458644,108.559751 C799.595366,108.109403 799.449485,107.628888 799.075952,107.29921 L798.283141,106.600295 C796.42031,104.956173 797.739815,102.145017 800.374204,102.145017 L801.49412,102.145017 C802.310638,102.145017 802.972557,101.560812 802.972557,100.840158 C802.972557,100.119505 802.310638,99.5352994 801.49412,99.5352994 Z M787.55656,103.657429 C785.860715,103.657429 784.485961,102.395545 784.485961,100.838933 C784.485961,99.2823212 785.860715,98.0204379 787.55656,98.0204379 C789.252405,98.0204379 790.627159,99.2823212 790.627159,100.838933 C790.627159,102.395545 789.252405,103.657429 787.55656,103.657429 Z M776.248952,87.1039598 L777.713457,87.1039598 C778.781045,87.1039598 779.646496,86.3095648 779.646496,85.3296289 C779.646496,84.349693 778.781045,83.555298 777.713457,83.555298 L776.248952,83.555298 C772.80519,83.555298 771.078777,79.7287991 773.514786,77.4961202 L774.550634,76.5444865 C775.301021,75.8507711 775.298741,74.7306208 774.545535,74.0394838 C773.792329,73.3483469 772.571985,73.3466255 771.816468,74.0356342 L770.78062,74.986436 C768.344611,77.2224423 764.179472,75.6394364 764.179472,72.4767519 L764.179472,71.1324862 C764.179472,70.1525503 763.314021,69.3581553 762.246433,69.3581553 C761.178846,69.3581553 760.313395,70.1525503 760.313395,71.1324862 L760.313395,72.4767519 C760.313395,75.6377727 756.14463,77.2224423 753.712247,74.986436 L752.676399,74.0356342 C751.920882,73.3466255 750.700538,73.3483469 749.947332,74.0394838 C749.194126,74.7306208 749.191846,75.8507711 749.942233,76.5444865 L750.978081,77.4961202 C753.414089,79.7321265 751.68949,83.555298 748.243915,83.555298 L746.77941,83.555298 C745.711822,83.555298 744.846371,84.349693 744.846371,85.3296289 C744.846371,86.3095648 745.711822,87.1039598 746.77941,87.1039598 L748.243915,87.1039598 C751.687677,87.1039598 753.414089,90.9304587 750.978081,93.1631376 L749.942233,94.1139394 C749.453822,94.5622513 749.263075,95.2156801 749.441846,95.8280856 C749.620617,96.440491 750.141746,96.9188341 750.808929,97.0829276 C751.476112,97.2470212 752.187988,97.0719355 752.676399,96.6236235 L753.712247,95.6728218 C756.148255,93.4368154 760.313395,95.0198214 760.313395,98.1825059 L760.313395,99.5267716 C760.313395,100.506708 761.178846,101.301103 762.246433,101.301103 C763.314021,101.301103 764.179472,100.506708 764.179472,99.5267716 L764.179472,98.1825059 C764.179472,95.0214851 768.348237,93.4368154 770.78062,95.6728218 L771.816468,96.6236235 C772.571487,97.3166537 773.795615,97.3166537 774.550634,96.6236235 C775.305653,95.9305934 775.305653,94.8069695 774.550634,94.1139394 L773.514786,93.1631376 C771.078777,90.9271313 772.803377,87.1039598 776.248952,87.1039598 Z M758.771814,87.0067973 C757.075969,87.0067973 755.701215,85.744914 755.701215,84.188302 C755.701215,82.63169 757.075969,81.3698066 758.771814,81.3698066 C760.467659,81.3698066 761.842413,82.63169 761.842413,84.188302 C761.842413,85.744914 760.467659,87.0067973 758.771814,87.0067973 Z M765.348296,88.4496418 C764.500373,88.4496418 763.812996,87.8187001 763.812996,87.0403941 C763.812996,86.2620881 764.500373,85.6311464 765.348296,85.6311464 C766.196218,85.6311464 766.883595,86.2620881 766.883595,87.0403941 C766.883595,87.8187001 766.196218,88.4496418 765.348296,88.4496418 Z" id="Shape" fill-opacity="0.29" fill="#FFFFFF" fill-rule="nonzero" transform="translate(773.909464, 90.971022) rotate(14.000000) translate(-773.909464, -90.971022) "></path>
            <path d="M1035.66942,62.3515435 L1034.5495,62.3515435 C1031.91511,62.3515435 1030.59561,59.540388 1032.45844,57.8962657 L1033.25125,57.1973506 C1033.62478,56.8676731 1033.77066,56.3871577 1033.63394,55.9368098 C1033.49722,55.4864619 1033.09866,55.1347002 1032.58841,55.0140298 C1032.07815,54.8933595 1031.53372,55.0221132 1031.16019,55.3517908 L1030.3683,56.0515214 C1028.50547,57.6956437 1025.32036,56.531057 1025.32036,54.2059615 L1025.32036,53.2175308 C1025.32036,52.4968771 1024.65844,51.9126719 1023.84193,51.9126719 C1023.02541,51.9126719 1022.36349,52.4968771 1022.36349,53.2175308 L1022.36349,54.2059615 C1022.36349,56.531057 1019.17838,57.6956437 1017.31555,56.0515214 L1016.52366,55.3517908 C1015.94623,54.8421535 1015.01003,54.8421535 1014.4326,55.3517908 C1013.85517,55.861428 1013.85517,56.6877134 1014.4326,57.1973506 L1015.22541,57.8962657 C1017.08824,59.540388 1015.76874,62.3515435 1013.13435,62.3515435 L1012.01443,62.3515435 C1011.19791,62.3515435 1010.536,62.9357488 1010.536,63.6564025 C1010.536,64.3770562 1011.19791,64.9612614 1012.01443,64.9612614 L1013.13435,64.9612614 C1015.76874,64.9612614 1017.08824,67.7724169 1015.22541,69.4165392 L1014.4326,70.1154543 C1014.05907,70.4451318 1013.91319,70.9256473 1014.04991,71.3759952 C1014.18663,71.8263431 1014.58519,72.1781048 1015.09544,72.2987751 C1015.6057,72.4194455 1016.15013,72.2906917 1016.52366,71.9610142 L1017.31555,71.2612836 C1019.17838,69.6171613 1022.36349,70.7817479 1022.36349,73.1068435 L1022.36349,74.0952741 C1022.36349,74.8159278 1023.02541,75.4001331 1023.84193,75.4001331 C1024.65844,75.4001331 1025.32036,74.8159278 1025.32036,74.0952741 L1025.32036,73.1068435 C1025.32036,70.7817479 1028.50547,69.6171613 1030.3683,71.2612836 L1031.16019,71.9610142 C1031.53372,72.2906918 1032.07815,72.4194455 1032.58841,72.2987752 C1033.09867,72.1781048 1033.49722,71.8263431 1033.63394,71.3759952 C1033.77066,70.9256473 1033.62478,70.4451318 1033.25125,70.1154543 L1032.45844,69.4165392 C1030.59561,67.7724169 1031.91511,64.9612614 1034.5495,64.9612614 L1035.66942,64.9612614 C1036.48594,64.9612614 1037.14786,64.3770562 1037.14786,63.6564025 C1037.14786,62.9357488 1036.48594,62.3515435 1035.66942,62.3515435 Z M1021.73186,66.4736726 C1020.03601,66.4736726 1018.66126,65.2117893 1018.66126,63.6551773 C1018.66126,62.0985653 1020.03601,60.836682 1021.73186,60.836682 C1023.4277,60.836682 1024.80246,62.0985653 1024.80246,63.6551773 C1024.80246,65.2117893 1023.4277,66.4736726 1021.73186,66.4736726 Z M1010.42425,49.9202039 L1011.88876,49.9202039 C1012.95634,49.9202039 1013.82179,49.1258089 1013.82179,48.145873 C1013.82179,47.1659371 1012.95634,46.3715421 1011.88876,46.3715421 L1010.42425,46.3715421 C1006.98049,46.3715421 1005.25408,42.5450432 1007.69008,40.3123643 L1008.72593,39.3607306 C1009.47632,38.6670152 1009.47404,37.5468649 1008.72083,36.8557279 C1007.96763,36.1645909 1006.74728,36.1628695 1005.99177,36.8518783 L1004.95592,37.8026801 C1002.51991,40.0386864 998.35477,38.4556804 998.35477,35.2929959 L998.35477,33.9487302 C998.35477,32.9687943 997.489319,32.1743993 996.421732,32.1743993 C995.354144,32.1743993 994.488694,32.9687943 994.488694,33.9487302 L994.488694,35.2929959 C994.488694,38.4540168 990.319929,40.0386864 987.887545,37.8026801 L986.851698,36.8518783 C986.096181,36.1628695 984.875837,36.1645909 984.12263,36.8557279 C983.369424,37.5468649 983.367144,38.6670152 984.117532,39.3607306 L985.153379,40.3123643 C987.589388,42.5483706 985.864788,46.3715421 982.419213,46.3715421 L980.954708,46.3715421 C979.88712,46.3715421 979.02167,47.1659371 979.02167,48.145873 C979.02167,49.1258089 979.88712,49.9202039 980.954708,49.9202039 L982.419213,49.9202039 C985.862975,49.9202039 987.589388,53.7467028 985.153379,55.9793817 L984.117532,56.9301835 C983.62912,57.3784954 983.438373,58.0319242 983.617145,58.6443296 C983.795916,59.2567351 984.317045,59.7350782 984.984228,59.8991717 C985.65141,60.0632653 986.363286,59.8881795 986.851698,59.4398676 L987.887545,58.4890658 C990.323554,56.2530595 994.488694,57.8360655 994.488694,60.99875 L994.488694,62.3430157 C994.488694,63.3229516 995.354144,64.1173466 996.421732,64.1173466 C997.489319,64.1173466 998.35477,63.3229516 998.35477,62.3430157 L998.35477,60.99875 C998.35477,57.8377292 1002.52353,56.2530595 1004.95592,58.4890658 L1005.99177,59.4398676 C1006.74679,60.1328978 1007.97091,60.1328978 1008.72593,59.4398676 C1009.48095,58.7468375 1009.48095,57.6232136 1008.72593,56.9301835 L1007.69008,55.9793817 C1005.25408,53.7433754 1006.97868,49.9202039 1010.42425,49.9202039 Z M992.947112,49.8230414 C991.251267,49.8230414 989.876513,48.561158 989.876513,47.004546 C989.876513,45.447934 991.251267,44.1860507 992.947112,44.1860507 C994.642958,44.1860507 996.017712,45.447934 996.017712,47.004546 C996.017712,48.561158 994.642958,49.8230414 992.947112,49.8230414 Z M999.523594,51.2658858 C998.675671,51.2658858 997.988294,50.6349442 997.988294,49.8566382 C997.988294,49.0783322 998.675671,48.4473905 999.523594,48.4473905 C1000.37152,48.4473905 1001.05889,49.0783322 1001.05889,49.8566382 C1001.05889,50.6349442 1000.37152,51.2658858 999.523594,51.2658858 Z" id="Shape" fill-opacity="0.29" fill="#FFFFFF" fill-rule="nonzero" transform="translate(1008.084762, 53.787266) rotate(14.000000) translate(-1008.084762, -53.787266) "></path>
            <path d="M1207.93173,51.1538462 L1207.12251,51.1538462 C1205.21898,51.1538462 1204.26555,49.0326154 1205.61157,47.792 L1206.18443,47.2646154 C1206.45434,47.0158486 1206.55975,46.6532631 1206.46095,46.3134414 C1206.36216,45.9736196 1206.07418,45.7081886 1205.70548,45.6171337 C1205.33679,45.5260787 1204.9434,45.6232332 1204.67349,45.872 L1204.1013,46.4 C1202.75528,47.6406154 1200.45382,46.7618462 1200.45382,45.0073846 L1200.45382,44.2615385 C1200.45382,43.7177504 1199.97553,43.2769231 1199.38554,43.2769231 C1198.79555,43.2769231 1198.31727,43.7177504 1198.31727,44.2615385 L1198.31727,45.0073846 C1198.31727,46.7618462 1196.01581,47.6406154 1194.66978,46.4 L1194.09759,45.872 C1193.68036,45.4874399 1193.00389,45.4874399 1192.58665,45.872 C1192.16942,46.2565601 1192.16942,46.8800553 1192.58665,47.2646154 L1193.15951,47.792 C1194.50554,49.0326154 1193.5521,51.1538462 1191.64857,51.1538462 L1190.83936,51.1538462 C1190.24937,51.1538462 1189.77108,51.5946735 1189.77108,52.1384615 C1189.77108,52.6822496 1190.24937,53.1230769 1190.83936,53.1230769 L1191.64857,53.1230769 C1193.5521,53.1230769 1194.50554,55.2443077 1193.15951,56.4849231 L1192.58665,57.0123077 C1192.31675,57.2610745 1192.21134,57.62366 1192.31013,57.9634817 C1192.40892,58.3033035 1192.69691,58.5687345 1193.0656,58.6597894 C1193.43429,58.7508444 1193.82769,58.6536899 1194.09759,58.4049231 L1194.66978,57.8769231 C1196.01581,56.6363077 1198.31727,57.5150769 1198.31727,59.2695385 L1198.31727,60.0153846 C1198.31727,60.5591727 1198.79555,61 1199.38554,61 C1199.97553,61 1200.45382,60.5591727 1200.45382,60.0153846 L1200.45382,59.2695385 C1200.45382,57.5150769 1202.75528,56.6363077 1204.1013,57.8769231 L1204.67349,58.4049231 C1204.9434,58.6536899 1205.33679,58.7508444 1205.70548,58.6597894 C1206.07418,58.5687345 1206.36216,58.3033035 1206.46095,57.9634817 C1206.55975,57.62366 1206.45434,57.2610745 1206.18443,57.0123077 L1205.61157,56.4849231 C1204.26555,55.2443077 1205.21898,53.1230769 1207.12251,53.1230769 L1207.93173,53.1230769 C1208.52172,53.1230769 1209,52.6822496 1209,52.1384615 C1209,51.5946735 1208.52172,51.1538462 1207.93173,51.1538462 Z M1198.87952,55.5846154 C1197.48217,55.5846154 1196.3494,54.4825471 1196.3494,53.1230769 C1196.3494,51.7636068 1197.48217,50.6615385 1198.87952,50.6615385 C1200.27687,50.6615385 1201.40964,51.7636068 1201.40964,53.1230769 C1201.40964,54.4825471 1200.27687,55.5846154 1198.87952,55.5846154 Z M1189.83104,42.675 L1190.8958,42.675 C1191.67198,42.675 1192.3012,42.0628355 1192.3012,41.3076923 C1192.3012,40.5525491 1191.67198,39.9403846 1190.8958,39.9403846 L1189.83104,39.9403846 C1187.32728,39.9403846 1186.0721,36.9916667 1187.84319,35.2711538 L1188.59629,34.5378205 C1189.14186,34.0032401 1189.1402,33.1400471 1188.59258,32.6074537 C1188.04497,32.0748603 1187.15773,32.0735338 1186.60843,32.6044872 L1185.85533,33.3371795 C1184.08424,35.0602564 1181.05601,33.8403846 1181.05601,31.4032051 L1181.05601,30.3673077 C1181.05601,29.6121645 1180.42678,29 1179.6506,29 C1178.87442,29 1178.2452,29.6121645 1178.2452,30.3673077 L1178.2452,31.4032051 C1178.2452,33.8391026 1175.21433,35.0602564 1173.44588,33.3371795 L1172.69277,32.6044872 C1172.14348,32.0735338 1171.25623,32.0748603 1170.70862,32.6074537 C1170.16101,33.1400471 1170.15935,34.0032401 1170.70491,34.5378205 L1171.45802,35.2711538 C1173.2291,36.9942308 1171.97524,39.9403846 1169.47016,39.9403846 L1168.4054,39.9403846 C1167.62922,39.9403846 1167,40.5525491 1167,41.3076923 C1167,42.0628355 1167.62922,42.675 1168.4054,42.675 L1169.47016,42.675 C1171.97393,42.675 1173.2291,45.6237179 1171.45802,47.3442308 L1170.70491,48.0769231 C1170.34982,48.4223943 1170.21114,48.9259296 1170.34111,49.3978521 C1170.47108,49.8697746 1170.84997,50.2383881 1171.33504,50.3648393 C1171.82011,50.4912906 1172.33767,50.3563687 1172.69277,50.0108974 L1173.44588,49.2782051 C1175.21696,47.5551282 1178.2452,48.775 1178.2452,51.2121795 L1178.2452,52.2480769 C1178.2452,53.0032201 1178.87442,53.6153846 1179.6506,53.6153846 C1180.42678,53.6153846 1181.05601,53.0032201 1181.05601,52.2480769 L1181.05601,51.2121795 C1181.05601,48.7762821 1184.08688,47.5551282 1185.85533,49.2782051 L1186.60843,50.0108974 C1187.15737,50.5449497 1188.04736,50.5449497 1188.59629,50.0108974 C1189.14522,49.4768452 1189.14522,48.6109753 1188.59629,48.0769231 L1187.84319,47.3442308 C1186.0721,45.6211538 1187.32596,42.675 1189.83104,42.675 Z M1177.62651,42.7846154 C1176.22916,42.7846154 1175.09639,41.6825471 1175.09639,40.3230769 C1175.09639,38.9636068 1176.22916,37.8615385 1177.62651,37.8615385 C1179.02385,37.8615385 1180.15663,38.9636068 1180.15663,40.3230769 C1180.15663,41.6825471 1179.02385,42.7846154 1177.62651,42.7846154 Z M1182.18072,43.7692308 C1181.62178,43.7692308 1181.16867,43.3284034 1181.16867,42.7846154 C1181.16867,42.2408273 1181.62178,41.8 1182.18072,41.8 C1182.73966,41.8 1183.19277,42.2408273 1183.19277,42.7846154 C1183.19277,43.3284034 1182.73966,43.7692308 1182.18072,43.7692308 Z" id="Shape" fill-opacity="0.29" fill="#FFFFFF" fill-rule="nonzero" transform="translate(1188.000000, 45.000000) rotate(-90.000000) translate(-1188.000000, -45.000000) "></path>
            <path d="M585.069454,52.7552801 L584.121833,52.7552801 C581.892734,52.7552801 580.77623,50.3939095 582.352471,49.0128468 L583.023312,48.4257581 C583.339378,48.148829 583.462816,47.745196 583.347127,47.3669038 C583.231439,46.9886116 582.894201,46.6931317 582.462447,46.5917686 C582.030692,46.4904055 581.570016,46.5985587 581.25395,46.8754878 L580.583891,47.4632615 C579.00765,48.8443242 576.31256,47.8660715 576.31256,45.9129912 L576.31256,45.0827095 C576.31256,44.4773603 575.752475,43.9866279 575.061575,43.9866279 C574.370675,43.9866279 573.81059,44.4773603 573.81059,45.0827095 L573.81059,45.9129912 C573.81059,47.8660715 571.1155,48.8443242 569.539259,47.4632615 L568.8692,46.8754878 C568.380604,46.4473925 567.588434,46.4473925 567.099838,46.8754878 C566.611242,47.3035831 566.611242,47.9976628 567.099838,48.4257581 L567.770679,49.0128468 C569.34692,50.3939095 568.230416,52.7552801 566.001317,52.7552801 L565.053696,52.7552801 C564.362796,52.7552801 563.802711,53.2460125 563.802711,53.8513616 C563.802711,54.4567108 564.362796,54.9474432 565.053696,54.9474432 L566.001317,54.9474432 C568.230416,54.9474432 569.34692,57.3088138 567.770679,58.6898765 L567.099838,59.2769652 C566.783772,59.5538943 566.660334,59.9575273 566.776022,60.3358195 C566.891711,60.7141117 567.228949,61.0095916 567.660703,61.1109547 C568.092458,61.2123178 568.553134,61.1041646 568.8692,60.8272355 L569.539259,60.2394618 C571.1155,58.8583991 573.81059,59.8366518 573.81059,61.7897321 L573.81059,62.6200138 C573.81059,63.2253629 574.370675,63.7160954 575.061575,63.7160954 C575.752475,63.7160954 576.31256,63.2253629 576.31256,62.6200138 L576.31256,61.7897321 C576.31256,59.8366518 579.00765,58.8583991 580.583891,60.2394618 L581.25395,60.8272355 C581.570016,61.1041646 582.030692,61.2123178 582.462447,61.1109547 C582.894201,61.0095916 583.231439,60.7141118 583.347127,60.3358195 C583.462816,59.9575273 583.339378,59.5538943 583.023312,59.2769652 L582.352471,58.6898765 C580.77623,57.3088138 581.892734,54.9474432 584.121833,54.9474432 L585.069454,54.9474432 C585.760354,54.9474432 586.320439,54.4567108 586.320439,53.8513616 C586.320439,53.2460125 585.760354,52.7552801 585.069454,52.7552801 Z M573.773964,55.4325765 C572.36076,55.4325765 571.215132,54.381007 571.215132,53.0838304 C571.215132,51.7866537 572.36076,50.7350842 573.773964,50.7350842 C575.187169,50.7350842 576.332797,51.7866537 576.332797,53.0838304 C576.332797,54.381007 575.187169,55.4325765 573.773964,55.4325765 Z M563.699657,42.5929717 L564.948793,42.5929717 C565.859383,42.5929717 566.597561,41.9153995 566.597561,41.0795718 C566.597561,40.2437442 565.859383,39.566172 564.948793,39.566172 L563.699657,39.566172 C560.76233,39.566172 559.289802,36.3023935 561.367574,34.3980497 L562.251091,33.5863622 C562.891127,32.9946637 562.889183,32.0392414 562.246742,31.4497422 C561.604301,30.8602431 560.56342,30.8587748 559.919008,31.4464587 L559.035491,32.2574367 C556.957719,34.1646186 553.4051,32.8144076 553.4051,30.1168238 L553.4051,28.9702442 C553.4051,28.1344165 552.666921,27.4568443 551.756332,27.4568443 C550.845743,27.4568443 550.107564,28.1344165 550.107564,28.9702442 L550.107564,30.1168238 C550.107564,32.8129886 546.551853,34.1646186 544.477173,32.2574367 L543.593656,31.4464587 C542.949244,30.8587748 541.908362,30.8602431 541.265922,31.4497422 C540.623481,32.0392414 540.621536,32.9946637 541.261573,33.5863622 L542.14509,34.3980497 C544.222862,36.3052316 542.75188,39.566172 539.813007,39.566172 L538.56387,39.566172 C537.653281,39.566172 536.915102,40.2437442 536.915102,41.0795718 C536.915102,41.9153995 537.653281,42.5929717 538.56387,42.5929717 L539.813007,42.5929717 C542.750334,42.5929717 544.222862,45.8567502 542.14509,47.761094 L541.261573,48.572072 C540.844986,48.9544556 540.682291,49.511792 540.834772,50.0341378 C540.987253,50.5564836 541.431746,50.9644822 542.000814,51.1044443 C542.569881,51.2444064 543.177069,51.0950686 543.593656,50.7126849 L544.477173,49.9017069 C546.554945,47.9945251 550.107564,49.344736 550.107564,52.0423199 L550.107564,53.1888995 C550.107564,54.0247271 550.845743,54.7022993 551.756332,54.7022993 C552.666921,54.7022993 553.4051,54.0247271 553.4051,53.1888995 L553.4051,52.0423199 C553.4051,49.3461551 556.960811,47.9945251 559.035491,49.9017069 L559.919008,50.7126849 C560.562995,51.3037989 561.607104,51.3037989 562.251091,50.7126849 C562.895078,50.121571 562.895078,49.1631859 562.251091,48.572072 L561.367574,47.761094 C559.289802,45.8539121 560.760784,42.5929717 563.699657,42.5929717 Z M549.181111,41.8932554 C547.767906,41.8932554 546.622278,40.8416859 546.622278,39.5445093 C546.622278,38.2473326 547.767906,37.1957631 549.181111,37.1957631 C550.594315,37.1957631 551.739943,38.2473326 551.739943,39.5445093 C551.739943,40.8416859 550.594315,41.8932554 549.181111,41.8932554 Z M554.331553,44.0238821 C553.48363,44.0238821 552.796253,43.3929404 552.796253,42.6146344 C552.796253,41.8363284 553.48363,41.2053868 554.331553,41.2053868 C555.179476,41.2053868 555.866853,41.8363284 555.866853,42.6146344 C555.866853,43.3929404 555.179476,44.0238821 554.331553,44.0238821 Z" id="Shape" fill-opacity="0.29" fill="#FFFFFF" fill-rule="nonzero" transform="translate(561.617771, 45.586470) rotate(-33.000000) translate(-561.617771, -45.586470) "></path>
            <path d="M358.808929,125.116723 L357.861308,125.116723 C355.63221,125.116723 354.515706,122.755353 356.091947,121.37429 L356.762787,120.787201 C357.078853,120.510272 357.202291,120.106639 357.086603,119.728347 C356.970915,119.350055 356.633676,119.054575 356.201922,118.953212 C355.770168,118.851849 355.309492,118.960002 354.993426,119.236931 L354.323367,119.824705 C352.747126,121.205768 350.052035,120.227515 350.052035,118.274435 L350.052035,117.444153 C350.052035,116.838804 349.49195,116.348071 348.801051,116.348071 C348.110151,116.348071 347.550066,116.838804 347.550066,117.444153 L347.550066,118.274435 C347.550066,120.227515 344.854975,121.205768 343.278734,119.824705 L342.608676,119.236931 C342.12008,118.808836 341.32791,118.808836 340.839314,119.236931 C340.350718,119.665026 340.350718,120.359106 340.839314,120.787201 L341.510154,121.37429 C343.086395,122.755353 341.969891,125.116723 339.740793,125.116723 L338.793172,125.116723 C338.102272,125.116723 337.542187,125.607456 337.542187,126.212805 C337.542187,126.818154 338.102272,127.308886 338.793172,127.308886 L339.740793,127.308886 C341.969891,127.308886 343.086395,129.670257 341.510154,131.05132 L340.839314,131.638409 C340.523248,131.915338 340.39981,132.318971 340.515498,132.697263 C340.631186,133.075555 340.968425,133.371035 341.400179,133.472398 C341.831933,133.573761 342.29261,133.465608 342.608676,133.188679 L343.278734,132.600905 C344.854975,131.219842 347.550066,132.198095 347.550066,134.151175 L347.550066,134.981457 C347.550066,135.586806 348.110151,136.077539 348.801051,136.077539 C349.49195,136.077539 350.052035,135.586806 350.052035,134.981457 L350.052035,134.151175 C350.052035,132.198095 352.747126,131.219842 354.323367,132.600905 L354.993426,133.188679 C355.309492,133.465608 355.770168,133.573761 356.201922,133.472398 C356.633676,133.371035 356.970915,133.075555 357.086603,132.697263 C357.202291,132.318971 357.078853,131.915338 356.762787,131.638409 L356.091947,131.05132 C354.515706,129.670257 355.63221,127.308886 357.861308,127.308886 L358.808929,127.308886 C359.499829,127.308886 360.059914,126.818154 360.059914,126.212805 C360.059914,125.607456 359.499829,125.116723 358.808929,125.116723 Z M347.51344,127.79402 C346.100236,127.79402 344.954607,126.74245 344.954607,125.445274 C344.954607,124.148097 346.100236,123.096528 347.51344,123.096528 C348.926644,123.096528 350.072273,124.148097 350.072273,125.445274 C350.072273,126.74245 348.926644,127.79402 347.51344,127.79402 Z M337.439132,114.954415 L338.688269,114.954415 C339.598858,114.954415 340.337037,114.276843 340.337037,113.441015 C340.337037,112.605187 339.598858,111.927615 338.688269,111.927615 L337.439132,111.927615 C334.501806,111.927615 333.029277,108.663837 335.10705,106.759493 L335.990566,105.947806 C336.630603,105.356107 336.628658,104.400685 335.986218,103.811186 C335.343777,103.221686 334.302895,103.220218 333.658484,103.807902 L332.774967,104.61888 C330.697195,106.526062 327.144575,105.175851 327.144575,102.478267 L327.144575,101.331688 C327.144575,100.49586 326.406397,99.8182876 325.495808,99.8182876 C324.585218,99.8182876 323.84704,100.49586 323.84704,101.331688 L323.84704,102.478267 C323.84704,105.174432 320.291328,106.526062 318.216648,104.61888 L317.333131,103.807902 C316.68872,103.220218 315.647838,103.221686 315.005397,103.811186 C314.362957,104.400685 314.361012,105.356107 315.001049,105.947806 L315.884565,106.759493 C317.962338,108.666675 316.491355,111.927615 313.552483,111.927615 L312.303346,111.927615 C311.392757,111.927615 310.654578,112.605187 310.654578,113.441015 C310.654578,114.276843 311.392757,114.954415 312.303346,114.954415 L313.552483,114.954415 C316.489809,114.954415 317.962338,118.218194 315.884565,120.122537 L315.001049,120.933515 C314.584462,121.315899 314.421767,121.873235 314.574248,122.395581 C314.726729,122.917927 315.171221,123.325925 315.740289,123.465888 C316.309357,123.60585 316.916545,123.456512 317.333131,123.074128 L318.216648,122.26315 C320.29442,120.355968 323.84704,121.706179 323.84704,124.403763 L323.84704,125.550343 C323.84704,126.38617 324.585218,127.063743 325.495808,127.063743 C326.406397,127.063743 327.144575,126.38617 327.144575,125.550343 L327.144575,124.403763 C327.144575,121.707598 330.700287,120.355968 332.774967,122.26315 L333.658484,123.074128 C334.302471,123.665242 335.34658,123.665242 335.990566,123.074128 C336.634553,122.483014 336.634553,121.524629 335.990566,120.933515 L335.10705,120.122537 C333.029277,118.215355 334.50026,114.954415 337.439132,114.954415 Z M322.920586,114.254699 C321.507382,114.254699 320.361754,113.203129 320.361754,111.905953 C320.361754,110.608776 321.507382,109.557206 322.920586,109.557206 C324.333791,109.557206 325.479419,110.608776 325.479419,111.905953 C325.479419,113.203129 324.333791,114.254699 322.920586,114.254699 Z M328.071029,116.385325 C327.223106,116.385325 326.535729,115.754384 326.535729,114.976078 C326.535729,114.197772 327.223106,113.56683 328.071029,113.56683 C328.918951,113.56683 329.606328,114.197772 329.606328,114.976078 C329.606328,115.754384 328.918951,116.385325 328.071029,116.385325 Z" id="Shape" fill-opacity="0.29" fill="#FFFFFF" fill-rule="nonzero" transform="translate(335.357246, 117.947913) rotate(-33.000000) translate(-335.357246, -117.947913) "></path>
            <path d="M635.95902,149.759731 L635.14062,149.759731 C633.215489,149.759731 632.251236,147.735699 633.612535,146.551931 L634.191897,146.048712 C634.464863,145.811344 634.571469,145.465373 634.471556,145.141122 C634.371643,144.816872 634.080392,144.563604 633.707513,144.476721 C633.334635,144.389838 632.936778,144.482541 632.663812,144.719909 L632.085125,145.223715 C630.723826,146.407483 628.396248,145.56898 628.396248,143.894912 L628.396248,143.183242 C628.396248,142.664371 627.912538,142.243743 627.315852,142.243743 C626.719165,142.243743 626.235456,142.664371 626.235456,143.183242 L626.235456,143.894912 C626.235456,145.56898 623.907877,146.407483 622.546578,145.223715 L621.967891,144.719909 C621.545922,144.35297 620.861775,144.35297 620.439806,144.719909 C620.017837,145.086848 620.017837,145.681773 620.439806,146.048712 L621.019169,146.551931 C622.380468,147.735699 621.416214,149.759731 619.491083,149.759731 L618.672684,149.759731 C618.075997,149.759731 617.592287,150.180359 617.592287,150.699229 C617.592287,151.2181 618.075997,151.638728 618.672684,151.638728 L619.491083,151.638728 C621.416214,151.638728 622.380468,153.66276 621.019169,154.846528 L620.439806,155.349747 C620.16684,155.587114 620.060235,155.933085 620.160147,156.257336 C620.26006,156.581586 620.551311,156.834855 620.92419,156.921738 C621.297068,157.00862 621.694925,156.915917 621.967891,156.67855 L622.546578,156.174744 C623.907877,154.990976 626.235456,155.829478 626.235456,157.503547 L626.235456,158.215217 C626.235456,158.734087 626.719165,159.154715 627.315852,159.154715 C627.912538,159.154715 628.396248,158.734087 628.396248,158.215217 L628.396248,157.503547 C628.396248,155.829478 630.723826,154.990976 632.085125,156.174744 L632.663812,156.67855 C632.936778,156.915917 633.334635,157.00862 633.707513,156.921738 C634.080392,156.834855 634.371644,156.581586 634.471556,156.257336 C634.571469,155.933085 634.464863,155.587114 634.191897,155.349747 L633.612535,154.846528 C632.251236,153.66276 633.215489,151.638728 635.14062,151.638728 L635.95902,151.638728 C636.555706,151.638728 637.039416,151.2181 637.039416,150.699229 C637.039416,150.180359 636.555706,149.759731 635.95902,149.759731 Z M626.618188,153.410831 C625.487625,153.410831 624.571122,152.569575 624.571122,151.531834 C624.571122,150.494093 625.487625,149.652837 626.618188,149.652837 C627.748752,149.652837 628.665254,150.494093 628.665254,151.531834 C628.665254,152.569575 627.748752,153.410831 626.618188,153.410831 Z M617.970156,141.82111 L619.003925,141.82111 C619.757516,141.82111 620.368422,141.260361 620.368422,140.568641 C620.368422,139.876922 619.757516,139.316172 619.003925,139.316172 L617.970156,139.316172 C615.539265,139.316172 614.320621,136.615114 616.040157,135.039106 L616.771343,134.367364 C617.301028,133.877683 617.299419,133.086988 616.767744,132.599127 C616.236069,132.111266 615.37465,132.110051 614.841344,132.59641 L614.110157,133.267564 C612.390622,134.845921 609.450523,133.728505 609.450523,131.496022 L609.450523,130.547129 C609.450523,129.855409 608.839616,129.29466 608.086025,129.29466 C607.332434,129.29466 606.721528,129.855409 606.721528,130.547129 L606.721528,131.496022 C606.721528,133.727331 603.77887,134.845921 602.061893,133.267564 L601.330707,132.59641 C600.797401,132.110051 599.935982,132.111266 599.404307,132.599127 C598.872632,133.086988 598.871022,133.877683 599.400708,134.367364 L600.131894,135.039106 C601.85143,136.617463 600.634065,139.316172 598.201894,139.316172 L597.168126,139.316172 C596.414535,139.316172 595.803629,139.876922 595.803629,140.568641 C595.803629,141.260361 596.414535,141.82111 597.168126,141.82111 L598.201894,141.82111 C600.632785,141.82111 601.85143,144.522168 600.131894,146.098177 L599.400708,146.769331 C599.055946,147.085786 598.921302,147.54703 599.047493,147.979317 C599.173684,148.411603 599.54154,148.749257 600.012493,148.865087 C600.483445,148.980918 600.985946,148.857328 601.330707,148.540873 L602.061893,147.869719 C603.781429,146.291361 606.721528,147.408777 606.721528,149.64126 L606.721528,150.590154 C606.721528,151.281873 607.332434,151.842623 608.086025,151.842623 C608.839616,151.842623 609.450523,151.281873 609.450523,150.590154 L609.450523,149.64126 C609.450523,147.409951 612.39318,146.291361 614.110157,147.869719 L614.841344,148.540873 C615.374298,149.03007 616.238388,149.03007 616.771343,148.540873 C617.304298,148.051675 617.304298,147.258529 616.771343,146.769331 L616.040157,146.098177 C614.320621,144.519819 615.537986,141.82111 617.970156,141.82111 Z M605.267141,140.987607 C604.136578,140.987607 603.220075,140.146351 603.220075,139.10861 C603.220075,138.070868 604.136578,137.229613 605.267141,137.229613 C606.397704,137.229613 607.314207,138.070868 607.314207,139.10861 C607.314207,140.146351 606.397704,140.987607 605.267141,140.987607 Z M609.900182,142.788906 C609.3349,142.788906 608.876649,142.368279 608.876649,141.849408 C608.876649,141.330537 609.3349,140.909909 609.900182,140.909909 C610.465463,140.909909 610.923715,141.330537 610.923715,141.849408 C610.923715,142.368279 610.465463,142.788906 609.900182,142.788906 Z" id="Shape" fill-opacity="0.29" fill="#FFFFFF" fill-rule="nonzero" transform="translate(616.421522, 144.224688) rotate(-11.000000) translate(-616.421522, -144.224688) "></path>
            <path d="M206.538342,121.538989 L203.213759,121.538989 C195.393307,121.538989 191.476224,112.335671 197.006224,106.953052 L199.359766,104.664905 C200.468635,103.585588 200.901698,102.01245 200.495824,100.538076 C200.089949,99.0637016 198.9068,97.9120844 197.392056,97.5170271 C195.877313,97.1219697 194.2611,97.543491 193.152231,98.6228077 L190.801432,100.913625 C185.271432,106.296244 175.81612,102.483556 175.81612,94.8715278 L175.81612,91.6355483 C175.81612,89.2762319 173.851147,87.3636281 171.427231,87.3636281 C169.003315,87.3636281 167.038342,89.2762319 167.038342,91.6355483 L167.038342,94.8715278 C167.038342,102.483556 157.58303,106.296244 152.05303,100.913625 L149.702231,98.6228077 C147.988068,96.9543287 145.20886,96.9543287 143.494696,98.6228077 C141.780533,100.291287 141.780533,102.996426 143.494696,104.664905 L145.848238,106.953052 C151.378238,112.335671 147.461155,121.538989 139.640703,121.538989 L136.31612,121.538989 C133.892204,121.538989 131.927231,123.451593 131.927231,125.81091 C131.927231,128.170226 133.892204,130.08283 136.31612,130.08283 L139.640703,130.08283 C147.461155,130.08283 151.378238,139.286148 145.848238,144.668767 L143.494696,146.956914 C142.385827,148.036231 141.952764,149.609369 142.358638,151.083744 C142.764513,152.558118 143.947662,153.709735 145.462406,154.104792 C146.97715,154.499849 148.593362,154.078328 149.702231,152.999012 L152.05303,150.708194 C157.58303,145.325575 167.038342,149.138264 167.038342,156.750291 L167.038342,159.986271 C167.038342,162.345587 169.003315,164.258191 171.427231,164.258191 C173.851147,164.258191 175.81612,162.345587 175.81612,159.986271 L175.81612,156.750291 C175.81612,149.138264 185.271432,145.325575 190.801432,150.708194 L193.152231,152.999012 C194.2611,154.078328 195.877313,154.49985 197.392056,154.104792 C198.9068,153.709735 200.089949,152.558118 200.495824,151.083744 C200.901698,149.60937 200.468635,148.036231 199.359766,146.956914 L197.006224,144.668767 C191.476224,139.286148 195.393307,130.08283 203.213759,130.08283 L206.538342,130.08283 C208.962259,130.08283 210.927231,128.170226 210.927231,125.81091 C210.927231,123.451593 208.962259,121.538989 206.538342,121.538989 Z M167.516421,132.490672 C162.545858,132.490672 158.516421,128.350732 158.516421,123.243857 C158.516421,118.136983 162.545858,113.997043 167.516421,113.997043 C172.486984,113.997043 176.516421,118.136983 176.516421,123.243857 C176.516421,128.350732 172.486984,132.490672 167.516421,132.490672 Z M130.846458,84.1026756 L135.223125,84.1026756 C138.413605,84.1026756 141,81.5610044 141,78.4256942 C141,75.2903839 138.413605,72.7487128 135.223125,72.7487128 L130.846458,72.7487128 C120.554792,72.7487128 115.395417,60.5058087 122.675417,53.3623403 L125.771042,50.3175832 C128.013571,48.0980369 128.006758,44.5141098 125.755804,42.3028133 C123.504851,40.0915168 119.857859,40.0860092 117.6,42.2904965 L114.504375,45.3325921 C107.224375,52.4867065 94.776875,47.4218703 94.776875,37.3028439 L94.776875,33.0018584 C94.776875,29.8665482 92.19048,27.324877 89,27.324877 C85.80952,27.324877 83.223125,29.8665482 83.223125,33.0018584 L83.223125,37.3028439 C83.223125,47.4165473 70.7647917,52.4867065 63.495625,45.3325921 L60.4,42.2904965 C58.1421415,40.0860092 54.4951487,40.0915168 52.2441956,42.3028133 C49.9932425,44.5141098 49.9864289,48.0980369 52.2289583,50.3175832 L55.3245833,53.3623403 C62.6045833,60.5164547 57.450625,72.7487128 47.1535417,72.7487128 L42.776875,72.7487128 C39.586395,72.7487128 37,75.2903839 37,78.4256942 C37,81.5610044 39.586395,84.1026756 42.776875,84.1026756 L47.1535417,84.1026756 C57.4452083,84.1026756 62.6045833,96.3455797 55.3245833,103.489048 L52.2289583,106.531144 C50.7693423,107.96552 50.1992973,110.056169 50.7335539,112.015564 C51.2678104,113.974958 52.8252021,115.50542 54.8190747,116.030438 C56.8129473,116.555456 58.940384,115.995268 60.4,114.560892 L63.495625,111.518796 C70.775625,104.364682 83.223125,109.429518 83.223125,119.548544 L83.223125,123.84953 C83.223125,126.98484 85.80952,129.526511 89,129.526511 C92.19048,129.526511 94.776875,126.98484 94.776875,123.84953 L94.776875,119.548544 C94.776875,109.434841 107.235208,104.364682 114.504375,111.518796 L117.6,114.560892 C119.856371,116.778246 123.514671,116.778246 125.771042,114.560892 C128.027413,112.343538 128.027413,108.748497 125.771042,106.531144 L122.675417,103.489048 C115.395417,96.3349337 120.549375,84.1026756 130.846458,84.1026756 Z M79.9581696,79.8708089 C74.9876069,79.8708089 70.9581696,75.730869 70.9581696,70.6239944 C70.9581696,65.5171197 74.9876069,61.3771798 79.9581696,61.3771798 C84.9287324,61.3771798 88.9581696,65.5171197 88.9581696,70.6239944 C88.9581696,75.730869 84.9287324,79.8708089 79.9581696,79.8708089 Z M102.252857,86.6516354 C99.7675757,86.6516354 97.7528571,84.6906113 97.7528571,82.2715654 C97.7528571,79.8525195 99.7675757,77.8914953 102.252857,77.8914953 C104.738138,77.8914953 106.752857,79.8525195 106.752857,82.2715654 C106.752857,84.6906113 104.738138,86.6516354 102.252857,86.6516354 Z" id="Shape" fill-opacity="0.29" fill="#FFFFFF" fill-rule="nonzero" transform="translate(123.963616, 95.791534) rotate(-171.000000) translate(-123.963616, -95.791534) "></path>
        </g>
    </g>
</svg>