<?xml version="1.0" encoding="UTF-8"?>
<svg width="32px" height="24px" viewBox="0 0 32 24" version="1.1" xmlns="http://www.w3.org/2000/svg" xmlns:xlink="http://www.w3.org/1999/xlink">
    <title>home-alt</title>
     <path d="M18.5,23.1194814 L18.5,17.9720001 C18.5,17.496404 18.126904,17.1108573 17.6666667,17.1108573 L14.3333333,17.1108573 C13.873096,17.1108573 13.5,17.496404 13.5,17.9720001 L13.5,23.1232489 C13.5,23.5971686 13.1294426,23.9820222 12.6708333,23.9843918 L6.83333333,24 C6.37309604,24 6,23.6144532 6,23.1388572 L6,14.3180634 L15.6036458,6.14527957 C15.8362,5.95157348 16.1679666,5.95157348 16.4005208,6.14527957 L26,14.312143 L26,23.1388572 C26,23.6144532 25.626904,24 25.1666667,24 L19.3333333,23.9833154 C19.1118677,23.9833165 18.8995104,23.8922199 18.7431551,23.7301418 C18.5867997,23.5680637 18.4993079,23.3483366 18.5,23.1194814 Z" id="Path" fill="#979797"></path>
                            <path d="M16.4261455,3.87507565 C16.1780757,3.68960538 15.8241742,3.68960538 15.5761045,3.87507565 L2.50769585,13.8590973 C2.22340116,14.0760884 1.80329492,14.0382519 1.56931721,13.774583 L0.152582159,12.1770571 C-0.0817535469,11.9137678 -0.0417127931,11.5241455 0.242030921,11.3066631 L14.3038208,0.56355903 C15.2882725,-0.18785301 16.7084216,-0.18785301 17.6928733,0.56355903 L31.75633,11.3066631 C31.8930041,11.410736 31.979505,11.560909 31.9968011,11.724142 C32.0140972,11.8873749 31.9607716,12.0502948 31.8485566,12.1770571 L30.4318216,13.774583 C30.1979757,14.0372528 29.7791475,14.0750414 29.4951097,13.8590973 L16.4261455,3.87507565 Z" id="Path" fill="#2E2E2E"></path>
</svg>