<?xml version="1.0" encoding="UTF-8"?>
<svg fill='#979797' width="21px" height="20px" viewBox="0 0 21 20" version="1.1" xmlns="http://www.w3.org/2000/svg" xmlns:xlink="http://www.w3.org/1999/xlink">
    <title>linkedin</title>

        <path d="M19.5,0 L1.4953125,0 C0.6703125,0 0,0.647321429 0,1.44196429 L0,18.5580357 C0,19.3526786 0.6703125,20 1.4953125,20 L19.5,20 C20.325,20 21,19.3526786 21,18.5580357 L21,1.44196429 C21,0.647321429 20.325,0 19.5,0 Z M6.6265928,17.7777778 L3.31578947,17.7777778 L3.31578947,7.77777778 L6.63157895,7.77777778 L6.63157895,17.7777778 L6.6265928,17.7777778 Z M4.97368421,6.66666667 C4.05645933,6.66666667 3.31578947,5.91774892 3.31578947,5 C3.31578947,4.08225108 4.05645933,3.33333333 4.97368421,3.33333333 C5.88660287,3.33333333 6.63157895,4.08225108 6.63157895,5 C6.63157895,5.92207792 5.89090909,6.66666667 4.97368421,6.66666667 L4.97368421,6.66666667 Z M18.7894737,17.7777778 L15.601707,17.7777778 L15.601707,13.0310868 C15.601707,11.8991835 15.5777027,10.4432273 13.9454125,10.4432273 C12.2843172,10.4432273 12.029872,11.6755414 12.029872,12.9489325 L12.029872,17.7777778 L8.84210526,17.7777778 L8.84210526,8.01967645 L11.9002489,8.01967645 L11.9002489,9.35240124 L11.9434566,9.35240124 C12.3707326,8.58562807 13.4125178,7.77777778 14.9631935,7.77777778 C18.189367,7.77777778 18.7894737,9.79968558 18.7894737,12.4286221 L18.7894737,17.7777778 L18.7894737,17.7777778 Z" id="path-1"></path>
    
    
</svg>