<?xml version="1.0" encoding="UTF-8"?>
<svg width="62px" height="64px" viewBox="0 0 62 64" version="1.1" xmlns="http://www.w3.org/2000/svg" xmlns:xlink="http://www.w3.org/1999/xlink">
    <title>Person</title>
    <g id="Welcome" stroke="none" stroke-width="1" fill="none" fill-rule="evenodd">
        <g id="Mobile" transform="translate(-303.000000, -141.000000)">
            <g id="Group-13" transform="translate(0.000000, 66.000000)">
                <g id="a-person/bust" transform="translate(293.000000, 61.000000)">
                    <g id="body/Macbook" transform="translate(9.058099, 38.348337)" fill-rule="evenodd">
                        <path d="M61.3782864,12.5710612 C60.4983932,12.6551995 59.6185001,12.7392178 58.7386069,12.823356 C54.524557,13.1369242 50.3121726,13.7917866 46.1303824,14.184812 C46.0262632,14.0197761 45.822466,14.046962 45.698732,14.161647 C45.2814536,14.1260592 44.8137809,13.8154317 44.4357939,14.138542 C44.4235192,14.1368616 44.4112445,14.1348812 44.3988464,14.1337409 C43.7258345,12.8756874 43.2606292,11.5338557 42.8091172,10.1902236 C42.5209391,9.36414404 42.1332063,8.5644702 41.4167087,8.00982962 C40.1939255,7.18314991 37.3922075,5.50680549 35.9563748,5.5772608 C35.9325656,5.32688637 35.8127175,5.06883028 35.6159521,4.90211403 C36.0496379,4.18201749 34.315573,3.71217535 34.1932576,3.7956535 C34.2716554,1.3898505 33.1096906,-0.699443697 30.5475454,-1.17852785 C28.2521746,-1.64434911 24.9874101,-1.72260612 23.7529073,0.613641756 C23.617207,0.598758521 22.2300805,0.591724992 22.0958606,0.606368175 C21.8871905,0.348972219 19.5955832,2.78802734 20.5348144,3.63715193 C12.1377407,7.25485839 7.36314689,6.82319166 5.03897062,16.9935426 C4.72476271,17.9489503 4.7018787,18.9944376 4.37009144,19.9285406 C3.18968376,22.6129842 2.23225637,25.4714656 1.99397896,28.3924206 C1.41848627,28.5360318 1.35230152,29.5242667 2.01889847,29.6672178 C2.2735216,29.7218896 2.48644773,29.7965459 2.67211043,29.9381166 C2.52697278,32.331797 3.12140183,37.7998257 3.4959347,37.782962 C4.25961905,40.1500566 7.66605493,40.8181108 10.0776962,39.98627 C9.66195981,40.7480156 10.0776962,41.2269654 10.0776962,41.6339684 C18.7554228,41.953718 28.2436008,41.7695687 36.9189218,42.208084 C38.0286419,42.1927207 39.1958497,42.4735217 40.2903961,42.3119066 C40.9579182,42.1560527 40.9590285,41.1338505 40.2819456,41.007463 L43.2404802,40.3816392 C43.1743572,40.357334 44.4600049,39.5244873 45.4316809,37.968169 C46.3361234,36.2271905 45.7205674,34.1256657 46.1303824,32.231894 C49.3311827,31.9769586 52.5849061,31.8679562 55.750671,31.3400214 C56.1823214,32.5978348 58.050853,31.0935478 58.6447886,30.4884363 C58.6440484,30.4874761 58.6433083,30.4865759 58.6425681,30.4856157 C58.930006,30.409039 59.1605115,30.146662 59.1682217,29.8360345 C59.3697984,29.5555335 59.4121122,29.1601675 59.2188009,28.8890886 C60.1048006,23.9099262 61.4555122,18.826101 61.9437249,13.8001284 C62.116311,13.7629203 62.278843,13.6892243 62.4166405,13.5756796 L62.4054761,13.5648172 C62.6389423,13.3113221 62.6843402,12.873767 62.295127,12.6583802 C61.9811659,12.4844624 61.7190175,12.5384141 61.3782864,12.5710612 Z" id="âœ‹-Skin" fill="#FFDBB4"></path>
                        <path d="M27.9137324,31.2067841 L28.5915493,31.6268754 L34.1373239,33.3672538 L37.5264085,33.7873451 L40.2992958,33.3672538 L40.2992958,37.9882583 L40.8538732,42.3091977 C40.6073944,42.7492933 38.2658451,42.7492933 33.8292254,42.3091977 C31.0009964,42.0286482 20.6645481,41.8925399 18.3111638,41.8326478 L18.1778169,41.8290933 C15.4123448,41.7514053 12.6805373,41.7514053 9.98239437,41.8290933 L9.98239437,40.208741 L17.6848592,36.4879322 L24.5862676,32.7071102 L27.9137324,31.2067841 Z M23.9841838,0.235963945 L24.4935179,0.606368175 L23.3814735,2.38576161 L28.7986411,6.65332952 L28.7986411,10.0620129 L30.5136722,11.6418323 L31.4939713,10.0620129 L32.8752985,8.27294369 L33.8569553,5.37287115 L33.5227147,3.46225859 L34.1948806,3.40058406 C34.1981327,3.53116573 34.1975828,3.66292795 34.1932576,3.7956535 C34.315573,3.71217535 36.0496379,4.18201749 35.6159521,4.90211403 C35.8127175,5.06883028 35.9325656,5.32688637 35.9563748,5.5772608 C37.3922075,5.50680549 40.1939255,7.18314991 41.4167087,8.00982962 C42.1332063,8.5644702 42.5209391,9.36414404 42.8091172,10.1902236 L42.876971,10.3917447 L42.9470253,10.5986196 L43.0176076,10.8053345 C43.4075511,11.9417048 43.8286053,13.0677956 44.3988464,14.1337409 C44.4112445,14.1348812 44.4235192,14.1368616 44.4357939,14.138542 C44.8137809,13.8154317 45.2814536,14.1260592 45.698732,14.161647 C45.8195885,14.0496291 46.0168276,14.0210879 46.1229588,14.1736084 L46.1303824,14.184812 L40.9314491,15.1822818 L37.5016571,26.899469 L34.5147872,24.5381889 L32.9115598,24.7703957 L28.6777341,26.2575959 L23.7535267,27.503328 L12.512219,30.5216875 L11.0806765,30.5216875 L2.75064227,28.5625428 L1.99993119,28.3212108 C2.24783455,25.4250111 3.19927781,22.5911658 4.37009144,19.9285406 C4.7018787,18.9944376 4.72476271,17.9489503 5.03897062,16.9935426 C7.36314689,6.82319166 12.1377407,7.25485839 20.5348144,3.63715193 C19.5955832,2.78802734 21.8871905,0.348972219 22.0958606,0.606368175 L22.1090142,0.605256917 L22.1374527,0.603774332 L22.1740934,0.602528993 C22.5016779,0.593251729 23.631137,0.600286324 23.7529073,0.613641756 C23.8235404,0.479971466 23.9008198,0.354205414 23.9841838,0.235963945 Z" id="ðŸ‘•-Top" fill="#FFCF77"></path>
                        <path d="M62.2092529,12.9268365 L62.0543955,13.7673018 C62.0175916,13.77904 61.9801462,13.7889801 61.9422152,13.7971577 C61.8935458,14.2981916 61.836305,14.7998003 61.7718076,15.301823 L60.8117177,20.5133258 C60.6461211,21.4353194 60.4889187,22.359276 60.3328657,23.2835578 L60.1260739,24.2763596 L59.998008,24.8934012 C59.7215483,26.2296788 59.4529777,27.5616014 59.2172913,28.8861179 C59.252863,28.936 59.2804564,28.9900905 59.3005471,29.0468993 L59.2824098,29.1215556 L59.2697992,29.1713349 L59.2568976,29.2205069 C59.0709425,29.9166984 58.7473756,30.5918114 57.9848515,30.7966813 C57.4096754,30.9511356 56.7785776,30.9651339 56.1846552,31.0260963 L56.1188215,31.0330727 L45.7261015,32.1713401 C44.4703409,32.308842 43.2151719,32.450492 41.9601212,32.5936476 L40.8721208,32.7179273 C39.3556447,32.8889557 37.8304473,33.0235498 36.3363039,33.3331327 C36.2814008,33.3445352 36.2359254,33.3658998 36.1988304,33.3939859 C36.4997194,32.2847648 36.78773,31.176984 37.0487511,30.0565404 C37.3425539,28.7954862 37.6213832,27.5319716 37.9356437,26.2754784 C38.5687247,23.7441281 39.278399,21.2294014 40.0553004,18.7362795 C40.2183359,18.2130157 40.3851371,17.6907938 40.5555969,17.1697875 L40.6752053,16.8055952 L40.7672726,16.5153797 C40.9097237,16.0728769 41.0860035,15.6180724 41.5037335,15.3739885 C41.9925936,15.0883087 42.6592414,15.0409495 43.2136958,14.942153 L43.589155,14.8734647 C44.1509029,14.7713925 44.7133711,14.6731962 45.276524,14.5788757 C47.9727564,14.1272175 50.6842705,13.7649187 53.405767,13.4927596 C56.23769,13.2095173 59.0794811,13.0254746 61.924718,12.9355187 L62.2092529,12.9268365 Z M36.4141666,30.3031976 L36.4406877,30.3053545 L36.0524835,33.3276715 C35.9904325,33.2853623 35.9116208,33.2594367 35.8154325,33.2596767 C34.5420764,33.2633281 33.3214546,32.8669685 32.1408222,32.431224 L31.9610342,32.3644964 L31.4597781,32.1768594 C30.950255,31.9867304 30.4380029,31.8007956 29.9162071,31.646586 L29.7052751,31.5845906 L29.5980562,31.5537537 C29.202986,31.441431 28.7873989,31.3393279 28.3764488,31.3139166 L28.3204413,31.3109331 L28.4401068,31.2497798 C28.4576068,31.2408378 28.4729501,31.2308157 28.486568,31.2200133 C28.712774,31.2363369 28.9394113,31.2318959 29.1780029,31.1900068 C29.6267177,31.1113297 30.0630469,30.9593166 30.4636983,30.7476506 L30.6426398,30.6531937 L30.7158914,30.6153438 L30.7642842,30.5909095 L30.8124086,30.5672068 C31.156512,30.4001478 31.4855427,30.2955468 31.9200187,30.3845117 C32.4132349,30.485624 32.8454533,30.7445 33.2900566,30.9632666 L33.3689626,31.0015314 L33.4220131,31.026496 L33.476098,31.0512717 L33.5308298,31.0756264 C34.1320611,31.3391134 35.088914,31.6234829 35.3194554,30.827348 C35.4120698,30.5074784 35.3395434,30.2079533 35.1788392,29.9453362 C35.478311,29.9200916 36.0133079,30.2639634 36.4141666,30.3031976 Z M51.3802157,20.3453624 L51.3874608,20.3816241 C51.4724773,20.8273744 51.2592751,21.2537775 50.9366464,21.5646343 C50.6719897,21.8195697 50.2036182,21.9612605 50.070951,22.3280003 C49.9954052,22.5366656 50.0757573,22.7345286 50.2309157,22.8724986 L50.1951794,22.8896879 L50.1602427,22.9070802 L50.1261343,22.9246447 L50.0928774,22.9423527 L50.0604909,22.9601772 C49.5333951,23.2550919 49.1041398,23.7347079 49.5795337,24.314012 C50.1188188,24.9711947 51.2456652,24.9924884 52.0395913,24.9410687 L52.0930754,24.9374229 C52.8629095,24.8812028 53.7748289,24.6293608 54.1922626,23.9370701 C54.383715,23.619481 54.3626411,23.2353975 54.0957661,22.9635984 C53.9347538,22.7996428 53.6475443,22.6312462 53.3841816,22.6113219 C53.3957045,22.4668104 53.3780196,22.3272201 53.3258277,22.2094145 C53.2129404,21.9547791 52.9125443,21.7833219 52.6228083,21.7771405 C52.6462696,21.2364443 52.2016055,20.7027331 51.8741941,20.2704856 L51.8407663,20.2261362 L51.8083189,20.1825339 C51.6580957,19.9789696 51.3366625,20.0930138 51.3802157,20.3453624 Z M51.8195337,20.9208744 L52.1178348,22.009151 L52.1127119,22.018102 C52.0076369,22.2124321 52.2830803,22.4330264 52.4464576,22.2697425 L52.4629061,22.2524776 C52.656807,22.0574394 52.954441,22.3196112 52.9581429,22.5271836 C52.9634421,22.8194041 52.768117,23.0453397 52.5353969,23.1945983 L52.519102,23.2048871 L52.4761957,23.2308482 C52.2852086,23.3537765 52.4298,23.6107891 52.6397538,23.5795123 C52.8995425,23.5408039 53.1124386,23.3401203 53.2436886,23.0895658 C53.3839351,23.1286943 53.5435302,23.1239533 53.6912326,23.2044308 C54.0634237,23.407158 53.8493672,23.7618128 53.6070005,23.9761654 L53.5971607,23.9847778 L53.577421,24.0015241 C53.1327592,24.370824 52.5273499,24.4991084 51.9566777,24.5266031 L51.9237943,24.5280785 C51.3473418,24.5520838 50.5963207,24.5601255 50.1022538,24.2299337 C49.7947714,24.0244491 49.7057309,23.7330257 49.965951,23.4570257 C50.1130988,23.3010518 50.261664,23.1436976 50.4146041,22.9916245 C50.6435214,23.0980277 50.8479756,23.0548783 51.0820689,22.9541764 C51.1120777,22.9412136 51.0954404,22.8965039 51.0660478,22.8965039 C50.9368929,22.8963838 50.4629756,22.6628731 50.4399298,22.5136806 C50.4186366,22.3755906 50.6807952,22.2591728 50.808276,22.1924562 L50.8267695,22.182588 L50.8427995,22.1735267 C50.9761446,22.0948496 51.101664,22.0032697 51.2163999,21.9004073 C51.507602,21.63934 51.7191037,21.3119008 51.8114664,20.9535371 L51.8195337,20.9208744 Z" id="ðŸ’»-Computer" fill="#FFFFFF"></path>
                        <path d="M23.9128752,0.0710518019 C24.1743277,-0.568867311 25.0581393,-0.320113234 24.9596094,0.352152911 C24.9006393,0.754840452 24.6741869,1.18015291 24.4707802,1.53308964 C24.3051464,1.82037209 24.1162203,2.10075304 23.8600671,2.31607985 C24.3160531,2.73040992 24.7893541,3.12961671 25.274671,3.50865911 C25.8042309,3.92220901 26.3610883,4.30341188 26.9366781,4.65376804 C27.4414052,4.96103484 27.9689316,5.23325402 28.4446974,5.58385024 C28.8870654,5.90978109 29.2900583,6.30178631 29.4951288,6.81351756 C29.7135841,7.35845675 29.6186468,7.92122884 29.4577809,8.46580023 L29.4393013,8.52737013 C29.2749615,9.06688742 28.9904633,9.7172488 29.3849527,10.2255593 C29.5857714,10.4843356 29.8777256,10.6676154 30.1298119,10.8744804 C30.3538612,11.0583603 30.5641693,11.2583238 30.757039,11.4731105 C31.1775936,11.9413323 31.5196446,12.4681868 31.7354985,13.0552345 L31.7548017,13.1085671 C31.9398151,13.6282448 32.0750293,14.2648674 31.8250319,14.7750883 C31.7533066,14.9213401 31.5219862,14.8738098 31.4818101,14.7313988 C31.3909826,14.4087687 31.3957274,14.0708952 31.3195654,13.7437041 C31.2403224,13.4034301 31.1084562,13.0804399 30.9362291,12.7748535 C30.6029994,12.1836792 30.1517044,11.6787024 29.618521,11.2517794 L29.4589117,11.1253675 C29.0429675,10.7929177 28.6608061,10.4402321 28.5763788,9.89002636 C28.4860443,9.30135839 28.7282098,8.74059649 28.8839228,8.18343536 C28.9924351,7.79515095 29.0278664,7.42295004 28.9106041,7.07205376 C28.7673383,7.29980327 28.5718805,7.51597026 28.4172767,7.70879218 C28.1093629,8.09293569 27.7985531,8.47473869 27.4885443,8.85726185 C27.1707098,9.24950712 26.860701,9.64793373 26.5654809,10.0566826 C26.4334298,10.2395423 26.302796,10.4234823 26.1725936,10.6076024 C26.0746798,10.7459924 25.9381305,10.8842625 25.8314052,11.0254132 C25.8573471,11.1009096 25.8553752,11.1879285 25.8083594,11.249742 C25.2423823,11.9945039 24.4371974,10.440526 24.2271974,10.0479207 C23.7995566,9.24836687 23.4812907,8.39894221 23.0522326,7.59956844 C22.6076464,6.77090829 22.1013788,5.96433295 21.537127,5.20780849 C21.1958154,4.75020901 20.8132802,4.32039557 20.5010531,3.84827294 C19.7654985,4.49785415 18.797576,4.93330881 17.9085267,5.32819466 C16.9317074,5.76200325 15.9168823,6.11639322 14.9153646,6.49271474 L14.6195229,6.60462337 C12.8938781,7.26053006 11.1260628,7.98112234 9.69172208,9.14616465 C8.00623792,10.5152423 7.00910764,12.4234171 6.26677489,14.3994067 C5.41223264,16.6742012 4.70526961,19.010389 4.04624673,21.3450766 C3.70900201,22.5396363 3.38901081,23.7395971 3.08818335,24.9433988 C2.82309532,26.0039494 2.6033594,27.0750622 2.2964932,28.1246904 C2.91885236,28.1032658 3.62864989,28.3379168 4.15999673,28.4056715 C6.58159004,28.7143786 8.97058651,29.2064856 11.2568629,30.0584908 C11.5392661,30.1637537 11.6209738,30.4384334 11.5594774,30.6610818 C11.7223383,30.6163121 11.885076,30.5709422 12.0479369,30.5264125 C11.8695072,30.2601456 11.9546695,29.7841014 11.9686975,29.4889744 L11.9695566,29.4686826 C11.9839756,29.0754171 12.0277872,28.6817315 12.0561939,28.2891862 C12.1102865,27.5408881 12.180708,26.7980615 12.2743405,26.054051 L12.2982362,25.8680198 C12.4043453,25.0585639 12.4827872,24.2443669 12.5985707,23.4362912 L12.6122502,23.3438111 C12.5567309,23.1370662 12.4920918,22.9328418 12.4242485,22.7295176 C12.2434562,22.1878998 11.988289,21.678089 11.764671,21.1535149 C11.7382978,21.0917615 11.8286323,21.0562938 11.8708418,21.0933219 C12.2495566,21.425134 12.550384,21.8460655 12.7920566,22.2863212 C12.7962467,22.2655567 12.7999439,22.2447322 12.8043189,22.2239677 L12.8318962,22.0917711 C12.8999008,21.7693781 12.9826184,21.4301769 13.1856833,21.1686982 C13.2073119,21.1409122 13.250076,21.1350909 13.2705337,21.1686982 C13.4648823,21.4889879 13.486634,21.8946161 13.5165196,22.2590753 C13.5503488,22.6713649 13.5546006,23.0888757 13.5486235,23.5023056 C13.5369774,24.3102612 13.4785002,25.1204973 13.4319157,25.9271327 C13.3862157,26.7198132 13.2964666,27.5023933 13.1808033,28.2872812 L13.1588171,28.4344778 C13.1022759,28.808064 13.0559867,29.1862895 12.9814096,29.5573207 L12.96034,29.6583238 C12.9204721,29.8423238 12.8959474,30.1017602 12.8165812,30.3172671 C14.8585355,29.7625665 16.9036323,29.2205286 18.9526112,28.6880329 C20.4335179,28.3031092 21.915965,27.9239468 23.397796,27.5423838 C23.4759914,27.405134 23.5733506,27.2769461 23.6948647,27.1623812 C24.095208,26.7847791 24.6257538,26.6163225 25.1123647,26.9069657 C25.1519245,26.9306708 25.155252,26.991044 25.1123647,27.0139089 C25.019134,27.0635397 24.9257186,27.1144308 24.8339668,27.1674823 L25.7237555,26.9327713 C26.3888171,26.7572331 27.0618277,26.5378855 27.7425407,26.4155189 C28.9963171,25.8129279 30.3448031,25.376753 31.6655601,24.9456793 L31.8211968,24.8944078 C32.4974568,24.6698643 33.1969465,24.4184904 33.8956393,24.2939977 C34.4071446,24.2028979 35.0075671,24.3128418 35.2132538,24.8231927 C35.4736587,24.990329 35.7186587,25.1867517 35.9550936,25.3799337 C36.1260267,25.5195241 36.2898735,25.6679363 36.4564932,25.8124478 L36.4872103,25.8387107 C36.6234247,25.9538144 36.7313299,26.0309035 36.7647767,26.2141151 C36.7820302,26.3087557 36.7202872,26.4367035 36.6004369,26.4241607 C36.2337379,26.3859324 35.9355601,25.9719624 35.6868629,25.7247687 C35.4947326,25.5336872 35.3010619,25.3361242 35.1256921,25.1261386 C35.023465,25.1803303 34.8833418,25.1706082 34.8182714,25.0505821 C34.4808418,24.4283069 33.5564844,24.8595006 33.0450407,25.0070727 L32.3123862,25.2182725 C31.9460826,25.3240232 31.579921,25.4302967 31.2143805,25.5384282 C30.2097326,25.8355528 29.2100143,26.1680851 28.1962467,26.4409644 C28.286951,26.5380655 28.2744421,26.710783 28.1021534,26.7764973 C27.3086147,27.0797433 26.4380513,27.2365573 25.6136411,27.4446226 C25.0931393,27.5761112 24.5729457,27.7083799 24.0529369,27.8414288 C23.9637731,27.9820994 23.899627,28.141254 23.8726376,28.3265143 C23.7734022,29.0076942 23.9647921,29.7936277 24.1512236,30.4524562 L24.1793067,30.5507541 C24.3325598,31.080443 24.5580283,31.7297741 25.0272679,32.0642468 C25.1418189,32.1458046 25.2876728,32.2025769 25.4346974,32.2154197 C26.3532626,31.7549396 27.2717661,31.2945195 28.1908242,30.8349396 C28.3610795,30.7497811 28.5183946,30.8650662 28.5565988,31.002136 C28.8806569,30.9503447 29.2039756,30.8687269 29.4984562,30.7713858 C29.9932626,30.6077302 30.3796182,30.2956024 30.8434914,30.0797354 C31.7410492,29.6621599 32.6576312,30.1750865 33.4612513,30.5650434 L33.6464655,30.653701 C34.0068392,30.8239907 34.756572,31.1511326 34.929495,30.6853871 C35.0967309,30.2348091 34.5679721,29.7532645 34.2264756,29.5504804 C33.8194157,29.3086878 33.3454369,29.1792997 32.885384,29.0715163 C32.6226992,29.0099429 32.3568101,28.9597119 32.0893189,28.923044 C31.7859034,28.8814549 31.4725055,28.8876963 31.1803664,28.7918555 C31.0351904,28.7443251 31.012884,28.5197563 31.1803664,28.4826682 C31.6300725,28.3829931 32.1668139,28.4917172 32.6360994,28.6028224 L32.8813788,28.6616872 C33.3541869,28.7746917 33.8315548,28.9165026 34.262215,29.1419116 C34.5753664,29.3058672 34.9058946,29.5549213 35.1218101,29.8597876 C35.3093142,29.6901538 35.5426824,29.6958888 35.7857767,29.7588032 L35.9177222,29.7945256 C36.1356016,29.8533307 36.3122062,29.8938064 36.5242133,29.8530662 C36.5525583,29.7028535 36.5812731,29.5525808 36.6120214,29.4023082 C36.9141429,27.925147 37.2454721,26.4536271 37.6110619,24.989969 C38.2416701,22.4653556 38.9713636,19.9684507 39.7939993,17.4971329 L39.8765724,17.2500864 C40.0662995,16.6848235 40.2189932,16.0689696 40.5248735,15.5496767 C40.8141781,15.05865 41.2776816,14.7758085 41.828377,14.6260159 C42.4533242,14.456059 43.1100055,14.3671196 43.7475231,14.2523147 C43.8897414,14.2267491 44.0323295,14.2024438 44.174671,14.1772984 C44.0543791,13.9657724 43.9645917,13.7256613 43.8837145,13.5413941 L43.8695302,13.5094732 C43.6957811,13.1236673 43.5397008,12.7309101 43.388981,12.3360578 L43.2762368,12.0392169 C43.0041045,11.3244138 42.7231789,10.6213496 42.3405601,9.95280001 C41.9378136,9.24920705 41.403509,8.673982 40.7374615,8.19789851 C39.3794862,7.22712747 37.7426816,6.73195983 36.4255601,5.69451429 C36.3715812,5.65202506 36.4407802,5.57934926 36.4955601,5.6062351 C37.3849175,6.04144971 38.3450143,6.33737405 39.2700495,6.69169107 L39.4525273,6.76181231 C40.1836676,7.04409336 40.9261932,7.35139141 41.5590372,7.80841384 C42.264583,8.31804463 42.8202696,8.95094221 43.2379281,9.70356583 C43.6495478,10.4454471 43.9128488,11.2758476 44.2032626,12.0682599 L44.2809357,12.2794016 C44.3980741,12.5960126 44.5190636,12.9116778 44.657708,13.2197902 C44.7677608,13.4644034 44.9731393,13.7436441 45.0664932,14.0230648 C45.3219069,13.9799155 45.577259,13.9366461 45.8329193,13.895057 C51.3704985,12.9946213 56.9699439,12.4655463 62.5818365,12.3107726 C62.8013876,12.3047113 62.9149527,12.5087557 62.8826024,12.6952762 C62.344046,15.7968104 61.8654457,18.908967 61.3403224,22.0128418 C61.1110971,23.3675163 60.8773119,24.7211705 60.6380425,26.0741647 C60.5168365,26.7596337 60.3767133,27.4424621 60.2619157,28.1289513 C60.1692397,28.6833519 60.101951,29.2420733 59.9428488,29.7836311 C59.8001376,30.2691966 59.5811411,30.7374184 59.2214668,31.1078789 C58.8337555,31.5072057 58.2926112,31.7005078 57.7478929,31.7918476 C56.3650848,32.023618 54.9467221,32.1182586 53.5526992,32.2726722 L46.130789,33.0950309 C46.2392482,34.0551569 46.2473538,35.0003454 46.1975903,35.9716489 L46.1692291,36.5018853 C46.1460437,36.9283755 46.1183264,37.3555071 46.0554281,37.7776089 C45.9765548,38.307104 45.7278576,38.7554615 45.3615284,39.1509474 C45.0251464,39.5141464 44.6164844,39.8240538 44.2189756,40.1209983 C43.80637,40.4293453 43.3800231,40.72695 42.8948911,40.9176115 L42.8319234,40.9419516 C42.4063243,41.1037862 41.6079441,41.3543904 41.0262115,41.2628065 C41.1022502,41.6338672 41.2493981,42.0328339 41.1189492,42.3999937 C41.0584386,42.5704908 40.8295214,42.6555293 40.6892749,42.5104778 C40.4114316,42.2229553 40.3897414,41.8431927 40.3239316,41.4681112 C40.2554721,41.0777863 40.1964404,40.6860812 40.144002,40.2934158 C40.042576,39.5341907 39.9636411,38.7680042 39.9395478,38.0023577 C39.9147767,37.2160668 39.9243277,36.4286956 39.9678312,35.6432449 C39.9901992,35.2398972 40.0179281,34.8367896 40.0704897,34.4360224 C40.0929193,34.2651053 40.1158418,34.0940681 40.1420302,33.923571 C40.1515812,33.8613975 40.1621798,33.7995241 40.1735795,33.7377707 L39.5074199,33.8109683 C38.485968,33.9220282 37.4640306,34.0223182 36.4353576,34.0378959 C36.3135355,34.0396963 36.2198119,33.9856845 36.1585619,33.9070074 C36.0933066,34.0105299 35.9796798,34.084586 35.8169421,34.0839859 C34.3804017,34.0787648 33.0426376,33.6212853 31.7360531,33.0821281 C31.0774615,32.810269 30.4290988,32.515965 29.7695214,32.2464465 C29.1538788,31.9948718 28.4957186,31.8153727 27.8949263,31.5319911 L26.3162291,32.3384465 C26.3046446,32.3781151 26.2897943,32.4156232 26.2740196,32.4470101 C26.1712379,32.6513545 25.9685707,32.7621986 25.76159,32.8456767 C25.5629281,32.9259742 25.3571798,32.9509396 25.1567309,32.9306552 C23.9594443,33.541708 22.7618805,34.152187 21.5635195,34.7612313 L20.3648735,35.3697654 C17.9767397,36.5807687 15.5980337,37.8116363 13.1948647,38.9941934 L13.0179429,39.080933 C12.1878791,39.4863003 11.2965583,39.8972057 10.3753929,40.2038163 C10.359002,40.4309057 10.3693541,40.6517537 10.3888876,40.8921059 L10.3935898,40.9444647 C10.4210546,41.2284965 10.4799434,41.5843917 10.2459914,41.7866004 C10.1242925,41.8917433 9.90689813,41.8921633 9.82414285,41.7336089 C9.6739756,41.4460864 9.80879954,40.9928078 9.85636996,40.6804399 C9.87325377,40.5693558 9.89383475,40.455151 9.92427489,40.3443669 C8.86823616,40.6505534 7.7802168,40.7990257 6.70556891,40.6270883 C5.65926609,40.459832 4.84890518,39.8178724 4.19561292,39.0326617 C3.50614989,38.2040616 3.01621151,37.2383917 2.7533418,36.2032266 C2.45417806,35.0252905 2.43464461,33.8088261 2.44166926,32.6022638 C2.44912525,31.3174445 2.49792806,30.0262638 2.65838581,28.7500864 C2.48258475,28.7098176 2.28761996,28.6750101 2.10997032,28.6870127 C2.02197736,28.8241425 1.85129074,28.881875 1.69705658,28.8640511 C1.36166046,29.2243095 2.21238229,29.5924895 2.48424849,29.6846695 C2.57864989,29.7167165 2.56854426,29.866029 2.45966222,29.861528 L2.39107806,29.8583529 C1.97099417,29.836587 1.53699087,29.7667332 1.28999673,29.3865247 C1.09207419,29.0817785 1.15153722,28.72074 1.38747912,28.472226 C1.54331539,27.037194 1.9158682,25.6397902 2.26260236,24.2399259 C2.60286644,22.8659272 2.98127313,21.5007504 3.38235588,20.1424752 L3.56216374,19.5345378 C4.19366101,17.4047606 4.85373295,15.2577994 5.72482947,13.2126487 C6.15980306,12.1914667 6.66089461,11.1890688 7.34012877,10.2986552 C7.97327137,9.46861475 8.72078018,8.75836035 9.58000553,8.15174848 C11.181811,7.02075937 13.061364,6.33738904 14.9081045,5.68631839 L14.9907714,5.65718618 C15.9477872,5.32003288 16.9024615,4.97885872 17.8485707,4.6135593 C18.6853048,4.29050908 19.4869157,3.88092003 20.3197062,3.55300875 C20.2926552,3.50517835 20.2665284,3.45680784 20.2413876,3.4078972 L20.2259918,3.42050883 C20.2233604,3.42254705 20.2206628,3.42452082 20.2178488,3.42638122 C20.1341076,3.48291351 20.0108066,3.45512747 19.9417925,3.39169368 C19.7469245,3.21261353 19.8128974,3.01382197 19.9429706,2.82810149 L19.9599087,2.80446602 C20.1190108,2.58739883 20.260921,2.35790894 20.4077608,2.13298005 L20.4997131,1.9923177 C20.7461892,1.61653889 21.0052051,1.23825221 21.3338436,0.927678025 C21.4860443,0.78376674 21.652664,0.676103335 21.8292045,0.595865892 C21.8141076,0.564779134 21.9464668,0.501225318 21.9839932,0.533212272 C22.5433154,0.333848932 23.1868101,0.375618012 23.7965988,0.430589962 M45.7716693,33.1347596 L44.9940284,33.2208783 C44.1385002,33.3156869 43.2826393,33.4073628 42.4266719,33.4981486 L40.5674527,33.6949213 C40.562708,33.7981438 40.5498295,33.8990857 40.5474879,33.9770427 C40.5353488,34.37895 40.5262907,34.7810375 40.5177256,35.1830648 C40.5005337,35.98892 40.5193893,36.7955554 40.5738612,37.5998502 C40.6266616,38.3791947 40.6961968,39.1586446 40.8042484,39.9327111 L40.8263788,40.087451 L40.8391957,40.1688287 C40.9273735,40.1771105 41.0140108,40.2179194 41.0860443,40.3017576 C41.2432978,40.4846174 41.8127256,40.3068587 42.0351112,40.229802 C42.4008242,40.1030544 42.7452168,39.8889279 43.0629897,39.6742012 C43.3733211,39.4645368 43.6527582,39.2200524 43.921285,38.9625124 L44.1409929,38.7508834 C44.3595459,38.539366 44.5783354,38.3140324 44.7122414,38.0479677 C44.8938348,37.6871692 44.9173119,37.2442729 44.9705513,36.8513075 C45.0361147,36.3679624 45.1141869,35.8846774 45.1966957,35.4037328 M23.1969774,28.0611366 L23.1163171,28.0817811 C20.1862379,28.8400459 17.2605337,29.6206956 14.321458,30.3454732 C12.8669862,30.7042312 11.4056129,31.0368835 9.94935412,31.38874 L9.71358205,31.4461697 C8.56474942,31.7289563 7.40212531,32.069301 6.52237349,32.8808444 C6.48989989,32.9107309 6.44276081,32.8648209 6.47332419,32.833074 C7.4214668,31.8500603 8.76995271,31.4339298 10.0647062,31.0731914 C10.3040372,31.0065169 10.5436763,30.9414027 10.7830689,30.8750883 C9.02222384,30.2637354 7.23358827,29.7318398 5.4036675,29.3524973 C4.93246151,29.2547961 4.45577137,29.1830805 3.98493511,29.0850192 C3.65656979,29.0165863 3.33589092,28.9176746 3.01099448,28.835621 L2.75543687,28.7730114 L2.75204288,29.5596398 C2.74778973,30.6737859 2.74982067,31.7870237 2.80818335,32.9010087 L2.81923131,33.1073675 C2.88732491,34.3470758 2.99361329,35.6125245 3.44533123,36.7814523 C3.81239989,37.7313388 4.39747912,38.6261934 5.16261116,39.3180838 C5.54976785,39.6681399 5.96600905,39.9406591 6.4805337,40.0752084 C6.95827137,40.2000955 7.45880835,40.2147387 7.9499175,40.1814314 C10.3055777,40.0213767 12.4024967,38.7750857 14.4487643,37.7432214 C17.7957626,36.0554745 21.1431305,34.3685678 24.4935179,32.6873023 C24.4029369,32.6269892 24.3176552,32.5574941 24.240076,32.4794171 C23.7908066,32.0275189 23.5538171,31.4089044 23.3981657,30.8097941 C23.2324703,30.1720955 23.1333858,29.4886069 23.1218629,28.8302638 M27.4600205,33.3388099 C27.489598,33.3233266 27.5238585,33.3427108 27.5252142,33.3752378 C27.5355663,33.6244534 27.394153,33.8702563 27.2884934,34.094767 L27.277318,34.1187395 C27.1489642,34.3968399 27.0084096,34.6712196 26.8630487,34.9412783 C26.5725117,35.4808556 26.2705751,36.0146716 25.9554518,36.540926 C25.3217546,37.5996162 24.6175645,38.6137166 23.7852054,39.535517 C23.5972036,39.7437623 23.2879958,39.4767643 23.4086473,39.2525555 C23.9903374,38.1717206 24.6684624,37.1511987 25.3664906,36.1395588 C25.715936,35.6330487 26.0651349,35.1260585 26.4180311,34.6218288 C26.5652508,34.4114331 26.7143534,34.2017875 26.8674784,33.9953232 L26.9598532,33.8718458 M62.2107626,12.9298072 C59.2704545,13.016286 56.3335971,13.2030466 53.4072767,13.4957302 C50.6857802,13.7678894 47.9742661,14.1301881 45.2780337,14.5818463 C44.7148808,14.6761668 44.1524126,14.7743632 43.5906647,14.8764354 L43.2537027,14.9381438 C42.6918541,15.0418463 42.0054721,15.0846356 41.5052432,15.3769592 C40.97784,15.6851262 40.8353136,16.3291862 40.6598207,16.8603016 C40.4535179,17.4849174 40.2524527,18.1113336 40.0568101,18.7392501 C39.2799087,21.2323721 38.5702344,23.7470988 37.9371534,26.2784491 C37.6228929,27.5349422 37.3440636,28.7984569 37.0502608,30.059511 C36.7892397,31.1799546 36.5012291,32.2877354 36.20034,33.3969566 C36.2374351,33.3688705 36.2829105,33.3475058 36.3378136,33.3361033 C37.831957,33.0265204 39.3571544,32.8919263 40.8736305,32.7208979 L41.0203576,32.704226 C42.589134,32.5245469 44.1579105,32.3461881 45.7276112,32.1743108 L56.1203312,31.0360433 C56.7332626,30.9689487 57.3898823,30.9598268 57.9863612,30.7996519 C59.0004837,30.5271843 59.2381876,29.4229602 59.4083377,28.5435739 L59.4134738,28.5169957 C59.926458,25.8600381 60.3348119,23.1799755 60.8132274,20.5162964 M36.4421974,30.3083251 C36.0387115,30.2823995 35.4864756,29.9225012 35.1803488,29.9483069 C35.3410531,30.2109239 35.4135795,30.5104491 35.320965,30.8303186 C35.0632098,31.7204321 33.8975495,31.259892 33.3360707,30.9879729 C32.8757098,30.7649044 32.4311851,30.491965 31.9215284,30.3874823 C31.3441517,30.2692566 30.9529897,30.4928652 30.465208,30.7506213 C30.0645566,30.9622873 29.6282274,31.1143003 29.1795126,31.1929774 C28.940921,31.2348665 28.7142837,31.2393075 28.4880777,31.222984 C28.4744598,31.2337863 28.4591164,31.2438085 28.4416164,31.2527504 L28.321951,31.3139037 C28.8630337,31.338029 29.4141605,31.5006643 29.9177168,31.6495567 C30.4395126,31.8037662 30.9517647,31.989701 31.4612878,32.1798301 L31.9625439,32.3674671 C33.1989696,32.8285972 34.4788392,33.2664845 35.8169421,33.2626474 C35.9131305,33.2624073 35.9919421,33.2883329 36.0539932,33.3306421 M34.1847159,27.5192788 C34.5833339,27.4718085 34.9512652,27.5226996 35.2697775,27.7754145 C35.6539149,28.0801607 35.9119782,28.5855906 36.4642142,28.6187778 C36.6252265,28.6284399 36.6626296,28.8489279 36.5026032,28.8950179 C36.0915381,29.0135436 35.75873,28.7969566 35.4786684,28.5157354 L35.2903701,28.324131 C35.0136071,28.045026 34.7583531,27.8292541 34.28873,27.8459298 C33.7857899,27.8638137 33.281987,27.9769983 32.7823127,28.0345508 C32.216274,28.099725 31.6503585,28.1552971 31.0825328,28.2032475 C31.0561596,28.205468 31.0516613,28.1650192 31.0763708,28.1590779 L31.7123605,28.0049249 M33.7999377,25.9321618 L33.8656802,25.9257536 C34.4445206,25.8710134 34.9738909,25.8688895 35.4908444,26.172154 L35.5899955,26.2305499 C36.0560818,26.5064512 36.563389,26.8314973 36.8548585,27.2781944 C36.9025522,27.3513503 36.8237406,27.437349 36.743943,27.418745 C36.1837582,27.2877965 35.7742335,26.8875095 35.3031508,26.5879243 C34.7744536,26.2517313 34.228318,26.3071833 33.6254923,26.3593947 C33.0418304,26.4099857 32.4584765,26.4794808 31.8805451,26.5742414 C31.3374906,26.6631807 30.7927106,26.8036112 30.2441719,26.848381 L30.2442951,26.8473007 C30.1816279,26.8471807 30.1458885,26.7555408 30.2097881,26.724454 C30.7664606,26.4537352 31.4111877,26.3256073 32.0167247,26.2019204 M51.3840363,20.3602625 C51.3280856,20.0996258 51.6572582,19.9787596 51.8098286,20.1855045 L51.8422759,20.2291068 C52.1718921,20.6689044 52.6485882,21.2207702 52.624318,21.7801112 C52.9140539,21.7862925 53.2144501,21.9577498 53.3273374,22.2123851 C53.3795293,22.3301907 53.3972142,22.4697811 53.3856913,22.6142925 C53.6490539,22.6342168 53.9362635,22.8026134 54.0972758,22.9665691 C54.3641508,23.2383682 54.3852247,23.6224517 54.1937723,23.9400407 C53.7763385,24.6323314 52.8644191,24.8841734 52.0945851,24.9403935 L52.0671525,24.9423186 C51.2720117,24.9958502 50.1262546,24.9813871 49.5810434,24.3169827 C49.0551191,23.6761033 49.6363779,23.1572305 50.2324254,22.8754693 C50.077267,22.7374993 49.9969149,22.5396363 50.0724606,22.3309709 C50.2051279,21.9642312 50.6734994,21.8225404 50.9381561,21.567605 C51.2607848,21.2567481 51.473987,20.8303451 51.3889705,20.3845948 M51.8210434,20.923845 C51.7333585,21.2949657 51.517936,21.6343995 51.2179096,21.903378 C51.1031737,22.0062403 50.9776543,22.0978202 50.8443092,22.1764973 L50.8282792,22.1855586 C50.7099384,22.2502601 50.4190544,22.3714797 50.4414395,22.5166513 C50.4644853,22.6658437 50.9384025,22.8993545 51.0675575,22.8994745 C51.0969501,22.8994745 51.1135874,22.9441842 51.0835786,22.957147 C50.8494853,23.0578489 50.6450311,23.1009983 50.4161138,22.9945952 C50.2631737,23.1466682 50.1146085,23.3040224 49.9674606,23.4599964 C49.7072406,23.7359964 49.7962811,24.0274197 50.1037635,24.2329044 C50.5978304,24.5630962 51.3488515,24.5550544 51.9253039,24.5310492 C52.5055152,24.5069239 53.1257177,24.3808966 53.5789307,24.0044947 L53.5986703,23.9877484 C53.8449845,23.7743964 54.069963,23.4128682 53.6927423,23.2074014 C53.5450399,23.1269239 53.3854448,23.131665 53.2451983,23.0925365 C53.1139483,23.3430909 52.9010522,23.5437746 52.6412635,23.582483 C52.4313097,23.6137598 52.2867183,23.3567471 52.4777054,23.2338188 L52.5206117,23.2078577 C52.7604333,23.0587832 52.9650751,22.8291705 52.9596525,22.5301542 C52.9559507,22.3225818 52.6583167,22.0604101 52.4644158,22.2554483 L52.4555416,22.2647765 C52.2932905,22.442897 52.0075048,22.2184391 52.1142216,22.0210727 L52.1193444,22.0121216 M13.979185,10.6028373 C13.9784642,10.5582476 14.0428568,10.541564 14.065348,10.5801524 C14.4419677,11.2254727 14.6388427,12.0165046 14.8394765,12.7274792 C15.0495997,13.4722411 15.2192388,14.2245647 15.3716244,14.9824094 C15.6802775,16.517003 15.8447406,18.0427747 15.8559079,19.6068347 C15.8574342,19.8301433 15.4838955,19.8895562 15.447355,19.6607264 C15.2047582,18.1393357 14.9723286,16.6163846 14.7278832,15.095414 C14.6048902,14.3304277 14.4617476,13.568382 14.324767,12.8056762 M17.7076895,11.7268517 C17.6799606,11.6378523 17.812936,11.6080859 17.8469501,11.6894635 C18.6027775,13.4963964 18.8587458,15.5441615 18.3734906,17.4504759 C18.2992388,17.7420793 17.8606913,17.6157519 17.9167036,17.3278093 M27.4570011,10.1212746 C27.4531807,10.0546602 27.5419747,10.0441579 27.5754342,10.0900078 C27.933568,10.5814547 28.0821332,11.2396178 28.7104694,11.493593 C29.0241754,11.6204005 29.3771948,11.5983157 29.6543603,11.8125023 C29.8396508,11.9557534 29.9817458,12.1818826 29.8426701,12.3988298 C29.797811,12.468925 29.67223,12.5040326 29.6113497,12.4278761 C29.5224941,12.3169119 29.4754782,12.1840431 29.3547652,12.100865 C29.1845099,11.9835395 28.9549149,11.9762779 28.7597036,11.9211259 C28.507186,11.8498304 28.2846156,11.7250633 28.1023444,11.539683 M33.4401649,1.92445872 C33.4770751,1.90615474 33.5125064,1.91785728 33.5361068,1.94894404 C33.5698127,1.99323367 33.5656842,2.03632303 33.524399,2.06668964 C33.5795487,2.1764535 33.6446807,2.45143328 33.6539853,2.49146198 C33.6916965,2.65373726 33.731811,2.81505232 33.773774,2.97624737 C33.8584395,3.30133804 33.9326296,3.62894926 34.0173568,3.95415996 C34.1071983,4.29887489 34.2142318,4.63992904 34.3333427,4.97606211 C34.3410246,4.99782684 34.3494733,5.020045 34.358342,5.04259213 L34.3719166,5.07664397 L34.3752441,5.07148285 C34.3994606,5.03421475 34.4498656,5.06026041 34.4438885,5.09962897 C34.4383427,5.13551677 34.4308867,5.17122454 34.4246015,5.20711234 L34.4370826,5.23926291 C34.5149961,5.44349712 34.5683541,5.65859348 34.4254025,5.83880966 C34.3719166,5.90620431 34.3130698,5.94611299 34.2397423,5.95799557 C34.1221719,6.33547763 33.9746543,6.70593817 33.816723,7.06169551 L33.7704347,7.16559232 C33.5381212,7.68471579 33.2903558,8.19701857 32.9204642,8.63895839 C32.5166085,9.12146328 31.9611068,9.45093491 31.6093198,9.97964984 C31.4456578,10.2255833 31.3317846,10.4841795 31.239355,10.7619199 L31.2045849,10.8673434 C31.138979,11.0637907 31.0632869,11.2541996 30.8740733,11.369432 C30.813686,11.40616 30.7232282,11.3944574 30.6745487,11.3443465 C30.2865293,10.9445996 30.6927265,10.1981573 30.9266965,9.81113321 C31.2519254,9.27293621 31.7226385,8.92864136 32.1939677,8.52259309 C32.7020223,8.08491795 33.0260804,7.49943067 33.3395399,6.92264528 C33.5315469,6.56928846 33.716899,6.20830999 33.9120487,5.85339283 C33.7081653,5.67789174 33.6429014,5.32928114 33.5738268,5.08696924 L33.5675328,5.0652415 C33.4533515,4.67719714 33.3626473,4.27907059 33.3053409,3.87920366 C33.2501876,3.49472478 33.2271841,3.11577458 33.2417758,2.72914428 L33.2459866,2.63065556 M34.1982291,3.75436452 C34.1531851,3.69423145 34.227745,3.62611664 34.2895495,3.63865937 C34.6653193,3.71433375 35.0327024,3.93585825 35.3699574,4.11498564 L35.4059756,4.13400705 C35.6751921,4.27539779 35.9460724,4.44859544 36.0874281,4.72327515 C36.2411711,5.02181278 36.2285054,5.3656645 36.2075382,5.69009541 L36.2055531,5.72045193 C36.1798576,6.10951651 36.1757291,6.51376439 36.0911869,6.89580744 C36.0479298,7.09132995 35.86609,7.14642193 35.7106235,7.10021188 C35.5256411,7.66907555 35.006002,8.08820666 34.6264245,8.53710425 C34.1424633,9.10938866 34.2335372,9.88205663 34.284127,10.5713065 C34.3045848,10.8503671 33.9481763,10.9297044 33.7646112,10.780812 L33.3415758,10.4386043 C33.2711262,10.3814852 33.2007702,10.3242528 33.1306059,10.2668003 C33.0705061,10.2175496 33.0109541,10.1679254 32.951895,10.117679 L32.8636693,10.0418114 C32.8245407,10.0077239 32.6519439,9.81994313 32.6014774,9.81214143 C32.4792403,9.79321732 32.1888297,10.1069664 32.0894396,10.2053714 L32.0768471,10.2176496 C31.8897696,10.3963084 31.7207467,10.5885302 31.5633083,10.7923945 C31.5343471,10.8298427 31.4777186,10.7987559 31.4984228,10.7554865 C31.6394934,10.4611788 31.803527,10.1797938 31.9982919,9.91642478 L32.0376569,9.8639927 C32.1672432,9.69391573 32.3411957,9.39361045 32.5699281,9.34337953 C32.8492233,9.28208995 33.128105,9.5548692 33.3313126,9.70626608 L33.3441798,9.71576048 C33.4408612,9.78639583 33.5364333,9.85829146 33.6318207,9.9306672 C33.6218383,9.41749564 33.6883876,8.89898292 33.9604386,8.45674678 C34.1522608,8.14485898 34.4396552,7.91386876 34.6855795,7.6458505 C34.9593559,7.34740562 35.1023136,6.98060588 35.3501481,6.66979831 C35.3820671,6.62982962 35.4260636,6.60828494 35.4736957,6.60144345 C35.4832187,6.35157095 35.5210054,6.09921857 35.5502041,5.85205139 L35.5586693,5.77806446 C35.5881851,5.50950607 35.6579386,5.18147476 35.5229298,4.92996009 C35.3953996,4.69239844 35.1027869,4.52471106 34.8861034,4.36352695 L34.7091775,4.22986646 M22.0027872,0.914655194 C21.8896534,0.978389049 21.783914,1.05766628 21.6879721,1.15674782 C21.3859738,1.46875565 21.1700583,1.85704006 20.9599351,2.23056126 C20.8468013,2.43172499 20.7377344,2.63510921 20.6236763,2.83579283 C20.5740724,2.92311181 20.5230513,3.00947059 20.4714756,3.09570934 C20.4476288,3.13543797 20.3767661,3.21441514 20.3416429,3.26308572 C20.3806698,3.31634232 20.4210205,3.36878141 20.4621807,3.42065334 C20.4778849,3.44044443 21.5612055,4.58977558 21.938826,5.03959192 C22.5170654,5.7286017 23.0339316,6.45637992 23.4758066,7.23534926 C23.9085002,7.99817509 24.2379193,8.80583067 24.6387555,9.58341971 C24.8393893,9.97272434 25.0634386,10.3592684 25.349046,10.6961816 C25.360076,10.7093245 25.3717221,10.7217472 25.3829985,10.73471 C25.4919999,10.447917 25.7713068,10.1408485 25.908487,9.9645289 L25.9213083,9.94787894 C26.2324263,9.53943015 26.5609826,9.14328403 26.8966869,8.75385937 C27.2033066,8.39826207 27.5177163,8.05034643 27.8397428,7.70817361 L27.9608594,7.58012421 C28.1852168,7.3440929 28.470208,6.99091612 28.7986411,6.82227946 C28.7634562,6.76118618 28.7227256,6.70075304 28.6758946,6.64110007 C28.3681657,6.24946994 27.9331673,5.96525065 27.5039378,5.70879597 L27.2255796,5.54388615 C26.1763245,4.92114369 25.143415,4.26953964 24.2324967,3.46040862 C23.7505689,3.03227555 23.275296,2.58379805 22.870208,2.08442949 L22.7269458,1.90786409 M23.7535267,0.606368175 C23.262171,0.646516903 22.7315636,0.636974829 22.2774879,0.792888723 C22.6811587,1.16454952 23.0648647,1.56585676 23.459046,1.94375891 C23.4941076,1.68816335 23.565833,1.43568846 23.62659,1.18645428" id="ðŸ–-Ink" fill="#000000"></path>
                    </g>
                    <g id="head/Short-4" transform="translate(22.922535, 10.802348)" fill-rule="evenodd">
                        <path d="M24.935865,18.2441341 C24.8035005,17.1089873 24.9748024,14.7363089 24.9862806,14.5921602 C25.0588445,13.6808657 24.6213498,10.0822998 23.7943077,10.4138719 C22.4069665,9.34197886 20.5591503,9.10528741 18.8312994,8.99222283 C15.2422889,8.75733177 11.4242368,9.29654899 8.65289027,11.6538614 C7.28235427,12.8780676 5.94807217,14.6585947 6.0553233,16.5125177 C4.81010244,18.2698197 3.05462049,20.6803637 4.6061113,22.7347903 C5.13349229,23.391153 5.97167497,23.6355862 6.63418987,24.1326742 C7.96677257,25.1817023 8.80281527,26.6871896 10.1480491,27.7299763 C13.7120091,30.8556357 19.7636415,31.5085777 23.2652273,27.9534048 C25.9729406,25.3786051 25.5351175,21.5266077 25.0588445,18.2441341 C24.7386426,16.0373033 25.1940945,20.4586878 24.935865,18.2441341 Z" id="âœ‹-Skin" fill="#FFDBB4"></path>
                        <path d="M14.036873,4.17841435 C14.9967275,3.98937326 15.9823462,3.87174768 16.9625539,3.90715538 L17.0381277,3.91002012 C17.7756435,3.93878819 18.7096489,4.00242609 19.3530282,4.42098708 C19.390045,4.3847392 19.449567,4.36613516 19.503555,4.39128063 C20.2681182,4.74745806 21.1090516,5.00497404 21.914075,5.26086967 C22.715409,5.51550502 23.54675,5.68360157 24.386638,5.75135629 C24.7026337,5.77686184 24.9730655,6.10987423 24.772978,6.40855917 C24.7253849,6.47973464 24.6790217,6.55163027 24.6328429,6.62370594 C24.710074,6.61584423 24.7873051,6.60774247 24.8645361,6.60012081 C25.1186732,6.57515538 25.3725642,6.83987293 25.3574992,7.08136543 C25.3480913,7.23325845 25.3313046,7.38335108 25.3064628,7.53164331 C25.4032476,7.52966288 25.499479,7.54382596 25.5924514,7.5821743 C26.0632167,7.77619648 26.0304427,8.32345545 25.9952091,8.73982596 C25.9463863,9.31763157 25.7249618,9.92964462 25.3138415,10.3620986 C25.6207982,10.6732663 25.8381029,11.0448671 25.9677232,11.486203 C26.061741,11.8084731 26.1140687,12.1517477 26.088243,12.4872206 L26.08001,12.5876595 C26.0480721,12.9517132 25.984574,13.3547667 25.7162302,13.6166661 C25.5784933,13.7516955 25.4087816,13.8009062 25.2470022,13.7853028 C25.3448323,14.6242852 25.4075519,15.4680686 25.466582,16.3088514 L25.4942624,16.710708 C25.6259408,18.6539227 25.7248983,20.6097928 25.6990131,22.5562095 C25.6749706,24.375205 25.3067087,26.1407888 24.1636148,27.6177098 C23.1225324,28.9626022 21.6277788,29.9540177 19.9368116,30.3308997 C19.0255339,30.5343439 18.0951945,30.548747 17.1728487,30.4191189 C16.7257569,30.3561052 16.2757137,30.2594841 15.8513731,30.107051 C15.3816532,29.9378142 15.0440746,29.6887601 14.7280175,29.3154789 C14.578536,29.1384404 14.6504789,28.7615585 14.9481507,28.7969662 C15.3983393,28.8502414 15.8093091,28.9144529 16.2409044,29.0444062 L16.3027077,29.0634241 C16.7325823,29.1978534 17.1777679,29.2980751 17.6271962,29.3406844 C18.5477588,29.4277033 19.482341,29.3400843 20.3641651,29.067625 C21.79995,28.6235285 23.0365083,27.6339134 23.8291108,26.3904431 C24.7699035,24.9165226 24.8762807,23.2433589 24.8626915,21.5485905 C24.8481281,19.6888809 24.7861587,17.8280941 24.6849917,15.9703123 L24.667769,15.6607105 C24.614273,14.7047027 24.5626216,13.7480947 24.5171807,12.7914868 C24.5030381,12.4914215 24.4815167,12.1889558 24.4427167,11.8894907 C24.0879825,11.6866466 23.7700806,11.4069858 23.5628603,11.0619108 C23.1465749,11.2299473 22.7087681,11.3511736 22.3059489,11.4477947 C21.3729039,11.6717633 20.4041949,11.7261352 19.4544862,11.5858847 C19.19832,11.6891671 18.9370502,11.7799669 18.6717836,11.8581038 C18.6000866,11.8891306 18.5283895,11.9196172 18.456754,11.9495037 C17.8171995,12.2165618 17.1684829,12.442811 16.4933873,12.608447 L16.3275392,12.6488117 C15.9722607,12.7342896 15.586358,12.8184654 15.2082522,12.8448984 C15.1461476,12.8683035 15.0791238,12.8881078 15.0058895,12.9055115 C14.6616086,12.9871293 14.3042918,13.0129349 13.9514023,12.9841286 C13.6076133,12.9559225 13.3591948,12.6168488 13.5485832,12.2993798 C13.686935,12.0677294 13.8265782,11.8366792 13.9673896,11.6062291 C13.4773166,11.8054724 12.9712562,11.9711084 12.4608915,12.1115389 C11.9456077,12.2531697 11.4229451,12.3725957 10.8996061,12.4824196 C10.6198279,12.5406322 10.3388813,12.5922434 10.059718,12.6504561 C9.85987643,12.6918651 9.55304273,12.7134698 9.39003348,12.8418977 C9.2099301,12.9829284 9.15889363,13.3117999 9.09057855,13.514644 C9.00080356,13.7781012 8.91656265,14.0427588 8.8397005,14.310417 C8.68665259,14.8445331 8.56121356,15.3864509 8.46405981,15.9337699 C8.36690605,16.481689 8.30166546,17.0350093 8.26538653,17.5901299 C8.22916908,18.1446505 8.24509492,18.7027718 8.18674117,19.2548918 C8.15531993,19.5477555 7.83317529,19.6983883 7.59521008,19.4937438 C7.56729375,19.4697386 7.53915878,19.4454666 7.51129711,19.4209279 L7.46977105,19.3839199 C7.26617859,19.2038808 7.0687966,19.0130393 6.90591033,18.7981926 C6.87639527,18.758584 6.84810999,18.717175 6.82166942,18.6751658 C6.81736513,18.6751658 6.81367575,18.6739656 6.80937147,18.6709649 L6.76420674,18.637795 C6.2668994,18.2765275 5.43606624,17.8055348 4.95115217,18.4057072 C4.79663078,18.5969044 4.71751738,18.8403598 4.65185612,19.0752345 L4.53664197,19.4955915 C4.46211897,19.7700038 4.39198516,20.0459438 4.35095102,20.3267249 C4.25810154,20.9556616 4.30483373,21.6806192 4.74823609,22.1847288 C4.92532648,22.3863726 5.16944067,22.5304039 5.44177863,22.5682121 C5.59371973,22.5886166 5.74375464,22.5634111 5.89440445,22.544807 C6.04751385,22.526203 6.19502769,22.5562095 6.34819858,22.5418064 C6.59169787,22.5184013 6.69807508,22.8028631 6.6070703,22.981702 C6.55787852,23.0777229 6.5000167,23.1605409 6.43428419,23.2307562 C6.48710385,23.2751658 6.53758691,23.3231763 6.58616379,23.3735872 C6.73004973,23.418597 6.85911665,23.515218 6.955717,23.6430458 C7.03380895,23.7462682 7.07433067,23.8584926 7.08115603,23.9767183 C7.0897031,24.0061247 7.09708187,24.0361312 7.10390722,24.0667379 L7.23582628,24.2756985 C7.26484058,24.3215293 7.29375058,24.3668031 7.32274913,24.4112128 C7.658483,24.927325 8.03117219,25.36422 8.49418977,25.7759095 C8.93999023,26.1719956 9.42385283,26.5266727 9.8426593,26.951565 L9.89199433,27.0020132 C10.2824333,27.4035568 10.6939845,27.8896338 10.5411825,28.4734959 C10.5018291,28.6235285 10.2871685,28.731552 10.1470334,28.6301299 C9.69631377,28.303659 9.46935522,27.7863465 9.08695066,27.3902604 C8.69335497,26.9821717 8.25739286,26.615492 7.86269036,26.2086035 C7.48938627,25.82452 7.19485052,25.3894254 6.97293412,24.9105213 C6.88432744,25.0059421 6.75526052,25.0737568 6.57632544,25.1001626 C6.26887684,25.1451723 5.98227326,24.9693341 5.84828716,24.7094776 C5.76214007,24.7466857 5.67427126,24.780293 5.58566458,24.8066988 C5.11957251,24.945929 4.82632804,24.440019 5.00218863,24.0661378 C5.09620641,23.8656942 5.21365178,23.6916564 5.3594439,23.5452245 C4.90374359,23.4840112 4.44011111,23.2541613 4.14065618,22.9672989 C3.38931331,22.2465422 3.28601058,21.1633067 3.45510731,20.2000973 C3.54488229,19.6893863 3.6997749,19.172674 3.90090777,18.6931697 C3.93589542,18.6097516 3.97346564,18.5257333 4.01460226,18.4429153 C3.99185106,18.4423152 3.96848497,18.4327131 3.95372744,18.4141091 C3.81783516,18.2328697 3.6524893,18.0846374 3.55158467,17.8817933 C3.4587352,17.6957529 3.35549396,17.5073119 3.28225971,17.3134698 C3.13167138,16.9167836 3.05788372,16.4690862 3.00869195,16.049595 C2.90723391,15.1908083 2.94652584,14.3374228 3.08124981,13.4840373 C3.31054498,12.0305213 3.86444436,10.6395389 4.68047442,9.41899361 C4.63604371,9.3962058 4.59346522,9.36870022 4.55378445,9.33617455 L4.53419038,9.31949198 L4.50233871,9.29140587 C4.26947714,9.08574116 4.28958428,8.70027736 4.50233871,8.49197208 L4.5695332,8.42623427 C4.65461923,8.34373506 4.72799368,8.27837365 4.8654355,8.18854612 C4.88572711,8.17528324 4.90644914,8.16280052 4.92741713,8.15115799 C4.85547416,8.02140978 4.83050934,7.8696968 4.88062346,7.70232042 C5.05525426,7.11923366 5.91488053,7.13987815 6.45974093,7.39415342 C7.06252464,6.86909928 7.73091789,6.4133002 8.45538976,6.04421996 C10.1808528,5.16562896 12.1318601,4.55289576 14.036873,4.17841435 Z M5.11780775,19.5357529 C5.44001388,19.4331306 5.86798232,19.6485774 6.1575989,19.7782056 C6.52469252,19.9426414 6.83706029,20.1856942 7.13958971,20.44255 C7.29023952,20.570978 7.31723351,20.7810236 7.27978627,20.9604626 C7.2760354,20.9784665 7.2724075,20.9970706 7.26804173,21.0156746 C7.22807341,21.2071162 7.00917002,21.357749 6.8154774,21.3523478 C6.41026015,21.3415455 6.21724393,21.0000712 5.98782578,20.7108083 C5.9608318,20.7576185 5.92701245,20.8008279 5.88513795,20.833235 L5.85686192,20.8548365 C5.76167066,20.9255807 5.6567316,20.9821219 5.53095717,20.9766661 C5.44179708,20.9724652 5.35638786,20.9502604 5.27761953,20.9100517 C5.08085243,20.8086296 4.99421342,20.5601756 5.04764798,20.3579316 C5.08085243,20.230704 5.15709968,20.1310823 5.25671303,20.0620673 L5.21958104,20.0372803 C5.1401323,19.983316 5.0676706,19.9264299 5.01119994,19.8424798 L4.99845621,19.8226153 L5.00337538,19.8226153 C4.94188567,19.7193928 4.98191547,19.5789623 5.11780775,19.5357529 Z" id="ðŸ–-Ink" fill="#000000"></path>
                    </g>
                    <g id="face/Smile" transform="translate(32.720070, 21.964775)" fill="#000000" fill-rule="evenodd">
                        <path d="M9.03262295,14.4587364 C8.61839824,14.2941596 8.24880505,14.0196346 7.97859677,13.6689467 C7.88465527,13.5470332 7.86029783,13.4182944 7.8800047,13.3005464 C7.9021637,13.168147 7.98259023,13.0481506 8.09227399,12.9676606 C8.20229749,12.8869214 8.33992292,12.8471028 8.47297802,12.8674011 C8.58859509,12.8850393 8.70368637,12.9466917 8.79477252,13.0745568 L8.81380269,13.1001267 C8.97444618,13.3117899 9.18377943,13.4854569 9.42230006,13.5973954 C9.65219516,13.7052859 9.90930959,13.7556426 10.1753811,13.7263591 C10.6821314,13.6706082 11.0314092,13.4036979 11.4026534,13.0412383 C11.4486702,12.9954768 11.4947164,12.9482808 11.5409859,12.9003251 C11.570206,12.8568535 11.6107562,12.8289142 11.6557779,12.814255 C11.7057665,12.7979785 11.7623153,12.7988994 11.8141096,12.8165032 C11.8640655,12.8334822 11.9087236,12.8656565 11.9386681,12.9084785 C11.9671278,12.9491773 11.9832637,12.9994551 11.978028,13.0572871 C11.9440473,13.4329172 11.742406,13.768151 11.4559828,14.0313804 C11.1378733,14.3237303 10.7161959,14.5259799 10.3192051,14.5969151 C9.88183776,14.6750531 9.4361721,14.6190717 9.03262295,14.4587364 L9.03262295,14.4587364 Z M10.5255293,8.66391273 C10.9908431,8.93937535 11.6998385,9.58170044 11.1992679,10.2646058 C10.6100484,10.8667461 9.76170548,10.1763512 9.34365677,9.86411243 C8.95602241,9.62212566 8.5204935,10.2444975 8.88014087,10.5270579 C11.9009696,12.7052456 13.1268859,8.73594237 10.7608785,8.34003622 C10.5003726,8.29640907 10.40362,8.57869535 10.5255293,8.66391273 Z M5.11217518,6.13011663 C5.16358625,5.50860498 6.13549384,5.36747084 6.23217518,5.98248454 C6.31875088,6.53340431 6.21683187,7.03949432 5.96203433,7.53550215 C5.71857482,8.00936517 5.10665914,7.78828576 5.06038273,7.35679196 C4.99835113,6.77839245 5.08019454,6.51673246 5.11217518,6.13011663 Z M12.5104665,5.85496282 C12.6459683,5.68212524 12.8416109,5.5641396 13.0760123,5.63081409 C13.8083627,5.8392394 13.5925088,6.85183953 13.3353081,7.34472668 C13.1955546,7.61238487 12.7438204,7.68025962 12.5396743,7.44458839 C12.2069278,7.06026484 12.0475792,6.29275799 12.4705986,5.91419569 C12.4820599,5.89463144 12.4948151,5.87488715 12.5104665,5.85496282 Z M5.95171919,3.41057143 L6.06740226,3.39085144 C6.4252772,3.33057164 6.87025352,3.27264945 7.12341813,3.55286236 C7.2576875,3.70145466 7.30390229,3.9776347 7.12341813,4.11986562 C6.80595335,4.37012003 6.45496743,4.27313894 6.07452729,4.29432355 C5.76100616,4.31184736 5.45968574,4.36237834 5.1576875,4.44645662 C4.49515229,4.63087671 3.95530194,4.9675499 3.38944806,5.33723027 C3.3151963,5.38572081 3.23940405,5.2932407 3.27483539,5.225606 C3.60148151,4.60249054 4.23450088,4.09063927 4.86856778,3.77863144 C5.20698327,3.61209524 5.57731778,3.47394521 5.95171919,3.41057143 Z M11.8428709,3.131444 L11.9314141,3.14909269 C12.8949762,3.34525185 14.1468689,3.73709588 14.6031621,4.65886355 C14.6205489,4.78920476 14.6021781,4.81713949 14.5872392,4.83539045 L14.5822654,4.84146375 C14.5699558,4.857049 14.5601337,4.87853317 14.5021256,4.89627284 C14.4860284,4.89253751 14.469771,4.88858129 14.4533413,4.88438794 C14.2441845,4.8310048 14.078701,4.757462 13.9184955,4.68115257 L13.744792,4.59780648 C13.5432613,4.50156846 13.3399512,4.40883304 13.1244892,4.34037225 C12.6646748,4.1943038 12.1917162,4.0914077 11.7114299,4.03646351 C11.6073316,4.02456493 11.5070914,3.99034783 11.4280091,3.93170529 C11.3529442,3.87604175 11.2955994,3.79897429 11.2694533,3.69653484 C11.2355681,3.56396182 11.245306,3.46359318 11.3183414,3.3439929 C11.3732596,3.25417566 11.4518387,3.19192057 11.5420674,3.15617159 C11.6340516,3.11972704 11.7387748,3.11113525 11.8428709,3.131444 Z" id="ðŸ–-Ink"></path>
                    </g>
                    <g id="facial-hair/Full" transform="translate(30.501757, 31.086738)" fill="#000000" fill-rule="evenodd">
                        <path d="M7.25416583,5.71282384 C7.75305402,4.57454067 8.84190659,3.73796532 10.0955578,3.43211218 C11.0161656,3.20808421 11.9823115,3.2152334 12.9207653,3.30414769 C13.4124536,3.35040715 13.9398338,3.38831588 14.4032146,3.56614446 C14.7989037,3.71807976 15.1213626,4.00524889 15.3638221,4.3423422 C15.6524351,4.74179566 15.8487412,5.19898334 15.9865862,5.66758569 C16.0061553,5.73421133 16.0245551,5.80131759 16.0417242,5.86878431 C15.9817862,6.22233878 15.8545257,6.5232656 15.5182824,6.74555133 C15.190162,6.96261034 14.7986575,7.05140447 14.4083838,7.08294502 C14.3701072,7.065042 14.3331229,7.04665837 14.2992155,7.02779413 C13.6910359,6.68871827 13.2629779,5.88740825 12.4953534,5.99584764 C11.8103129,6.09269213 11.3593628,6.93215118 10.9519815,7.42442396 C9.64429998,7.5728147 8.33760305,7.19012279 7.27361182,6.46186667 C7.2195815,6.21260627 7.21644306,5.96124316 7.25416583,5.71282384 M16.9305169,4.8493339 C16.8259024,4.56342639 16.6941496,4.28653046 16.5379663,4.02567515 C16.0216628,3.16302629 15.229054,2.47568276 14.2881387,2.08277772 C12.0623108,1.1545846 9.18233456,1.80888565 7.3848109,3.33118244 C6.77078519,3.85157136 6.14992877,4.61629434 5.96217647,5.4388717 C5.90611539,5.4496856 5.85319275,5.47810212 5.80962388,5.51811356 C4.51092689,4.72178995 3.17352252,3.95562511 2.12700806,2.85176619 C1.36701432,2.04973524 0.838403292,1.10057518 0.514713651,0.0575744879 C0.48825233,-0.0282758656 0.346099655,-0.0157197257 0.350407312,0.0792623659 C0.351638071,0.101490939 0.35286883,0.123659435 0.354099589,0.145888008 C0.340561239,0.105035495 0.276561766,0.126062524 0.27163873,0.165713492 C0.0974863183,1.43274215 -0.120358041,2.77606889 0.080255691,4.04970604 C0.200254702,4.80968293 0.554713321,5.3660581 1.02855557,5.96683034 C1.5362437,6.61079811 2.11100819,7.20976804 2.69869566,7.78416638 C3.07161566,8.14877505 3.46115092,8.56931562 3.91776254,8.83665927 C4.44883509,9.14725852 5.05129166,9.38342209 5.61805623,9.62307014 C6.19466686,9.86758444 6.77989281,10.0934748 7.37619559,10.2893266 C8.56818577,10.6822316 9.80017562,10.9537807 11.0537038,11.0727336 C12.0573878,11.1676556 13.2044553,11.2710485 14.1662935,10.9033158 C14.9035182,10.6215536 15.4985902,10.1121588 15.9705863,9.49931105 C16.4844283,8.83185309 16.8906403,8.07157582 17.1151923,7.26984526 C17.3485442,6.43705478 16.9796857,4.98360649 16.9305169,4.8493339" id="ðŸ–-Ink"></path>
                    </g>
                    <g id="mask/*no-mask" transform="translate(24.339789, 27.666014)"></g>
                    <g id="accessories/Sunglasses" transform="translate(25.818662, 25.265492)" fill="#000000" fill-rule="evenodd">
                        <path d="M20.815681,0.900195695 C22.2620229,0.900195695 23.0874015,1.20311915 23.3898588,1.22671625 L23.3989545,1.22735074 C23.5247572,1.23518462 23.6376097,1.24542893 23.7560123,1.29002181 C24.1913886,1.45332816 24.2623068,1.89805173 24.0082345,2.17832399 C23.9904125,2.75827245 24.0687309,3.43590341 23.9343563,4.01771994 C23.7685926,6.470509 22.5841966,6.88443938 21.9109667,7.03551282 C21.5729643,7.11138097 21.1723688,7.14157156 20.8133376,7.06148516 C20.2008508,7.03924898 19.5953325,6.85250124 19.0772594,6.52733479 C18.3557436,6.07411448 17.8198484,5.37750141 17.6459446,4.55078561 C17.5635229,4.15671576 17.5250032,3.74654445 17.5698578,3.34598601 L17.5765064,3.29079577 C17.3419829,3.18154322 17.0702119,3.16087382 16.7900541,3.15123212 C16.6562345,3.14659205 16.5243266,3.14243406 16.3961805,3.14797804 C16.2709327,3.16159695 16.147165,3.1797354 16.0230272,3.20444227 C15.8874809,3.24427455 15.7594581,3.31001892 15.6412405,3.41414931 L15.6331003,3.56612666 C15.6108999,3.94576873 15.5597154,4.32655575 15.4807803,4.6990268 C15.3642278,5.24860389 15.176757,5.77347412 14.7777649,6.16330023 C14.6427119,6.35974994 14.4755915,6.53510842 14.2727038,6.68696524 C13.5357092,7.23961563 12.5344055,7.44251322 11.6154286,7.36610272 C9.74978594,7.21105208 8.67139722,5.76865326 8.42287509,5.1521266 L8.4080278,5.11477421 C8.22849974,4.6564262 8.08542602,4.06172387 7.51814353,3.96324432 L7.3974905,3.94213213 C7.13862344,3.89480804 6.89975715,3.82892334 6.74797159,3.58293938 C6.68143179,3.47555491 6.64720604,3.35545544 6.63881919,3.23300581 C6.5502639,3.23963448 6.46183196,3.24596185 6.37370835,3.25210844 C5.67072373,3.3968997 1.45423934,3.5196657 1.11768109,3.5196657 C1.11768109,3.5196657 0.470735159,3.78486217 0.197594184,3.579384 C0.00827335326,3.43650601 -0.05401135,3.24608237 0.0502076089,3.03034926 C0.20745874,2.70576041 0.9329391,2.51051809 1.25508016,2.44869723 C1.25508016,2.44869723 6.45360853,2.49074772 6.82777001,2.42165648 C7.05927177,2.18917091 7.47337254,2.22098853 7.81939182,2.18422953 C8.10583978,1.98530914 8.5065586,1.85207285 8.82310056,1.7628871 C8.88760531,1.73908414 8.95149338,1.71606458 9.01359308,1.69437074 C9.59388918,1.49310019 10.1970641,1.38649911 10.8094276,1.32925149 C11.4409081,1.27079867 12.0742387,1.29725309 12.7020192,1.38101539 C12.966575,1.41596656 13.2286641,1.46116205 13.4889032,1.52027774 C13.9548822,1.58010526 14.4181512,1.67864907 14.8842995,1.79555134 L14.9775693,1.81917054 C15.4684467,1.94451269 15.9728911,2.05292159 16.4810357,1.96795408 C16.8947253,1.89923183 17.2925569,1.74417366 17.6739875,1.57650177 L17.7236463,1.55456605 C18.5623314,1.18161291 19.8720986,0.900195695 20.815681,0.900195695 Z M13.4384587,2.26383385 C13.1290086,2.19754714 12.996854,2.66221698 13.3072909,2.72868447 C13.5271182,2.77575427 13.7134299,2.88371927 13.8393053,3.06662746 L13.8525595,3.08651218 C14.0214682,3.34828443 14.448581,3.10663924 14.2785005,2.8431797 C14.0871447,2.54669732 13.7897815,2.33903913 13.4384587,2.26383385 Z M22.5018697,1.9757277 C22.392779,1.90088398 22.2276937,1.95644429 22.1643607,2.06220173 C22.0946559,2.17866028 22.1403429,2.30832476 22.2425128,2.38451017 L22.2529159,2.39194798 C22.3466316,2.45627742 22.4379034,2.57158911 22.4493655,2.68973981 L22.4503769,2.70451995 C22.4626489,3.01371732 22.9560547,3.0152841 22.9437211,2.70451995 C22.9316959,2.40050499 22.7509469,2.14650637 22.5018697,1.9757277 Z" id="ðŸ–-Ink"></path>
                    </g>
                </g>
            </g>
        </g>
    </g>
</svg>