<?xml version="1.0" encoding="UTF-8"?>
<svg width="26px" height="26px" viewBox="0 0 26 26" version="1.1" xmlns="http://www.w3.org/2000/svg" xmlns:xlink="http://www.w3.org/1999/xlink">
    <title>question-circle</title>
    <path d="M13,0 C5.81854839,0 0,5.82274194 0,13 C0,20.1772581 5.81854839,26 13,26 C20.1814516,26 26,20.1814516 26,13 C26,5.81854839 20.1814516,0 13,0 Z M13,22.1209677 C11.6682811,22.1209677 10.5887097,21.0413963 10.5887097,19.7096774 C10.5887097,18.3779585 11.6682811,17.2983871 13,17.2983871 C14.3317189,17.2983871 15.4112903,18.3779585 15.4112903,19.7096774 C15.4098458,21.0407975 14.3311201,22.1195232 13,22.1209677 Z M15.0967742,15.2367339 L15.0967742,15.3064516 C15.0967742,15.6538565 14.8151469,15.9354839 14.4677419,15.9354839 L11.5322581,15.9354839 C11.1848531,15.9354839 10.9032258,15.6538565 10.9032258,15.3064516 L10.9032258,15.0967742 C10.9032258,12.9444355 12.5350403,12.0842339 13.7679435,11.3928226 C14.8252419,10.7999597 15.4736694,10.3968548 15.4736694,9.61056452 C15.4736694,8.5716129 14.1490323,7.88072581 13.0781048,7.88072581 C11.6528226,7.88072581 11.0106855,8.56951613 10.0744758,9.75681452 C9.86222922,10.0258256 9.47371382,10.0754679 9.20064516,9.86846774 L7.38169355,8.49193548 C7.11581813,8.29044101 7.05348289,7.91642952 7.2396371,7.63959677 C8.67016129,5.50403226 10.4922581,4.2983871 13.3491129,4.2983871 C16.3024194,4.2983871 19.4575403,6.60483871 19.4575403,9.64516129 C19.4575403,13.6814516 15.0967742,13.744879 15.0967742,15.2367339 L15.0967742,15.2367339 Z" id="Shape" fill="#2E2E2E"></path>
                            <path d="M13.2364535,18.1294118 C12.0478549,18.1294118 11.0843053,19.2197301 11.0843053,20.5647059 C11.0843053,21.9096817 12.0478549,23 13.2364535,23 C14.4250521,23 15.3886017,21.9096817 15.3886017,20.5647059 C15.3886017,19.2197301 14.4250521,18.1294118 13.2364535,18.1294118 Z M13.5480471,5 C10.9982194,5 9.37194389,6.21764706 8.09515857,8.37552941 C7.92961202,8.65490734 7.98520411,9.03187924 8.22194817,9.23529412 L9.8454165,10.6281765 C10.0891384,10.8372373 10.4358999,10.7871007 10.6253363,10.5154118 C11.4609312,9.31629412 12.0340577,8.62064706 13.3061644,8.62064706 C14.2619989,8.62064706 15.4442769,9.31629412 15.4442769,10.3677059 C15.4442769,11.1618235 14.8655361,11.5673529 13.9218659,12.1677059 C12.8214632,12.8633529 11.3650203,13.7321176 11.3650203,15.9058824 L11.3650203,16.1176471 C11.3650203,16.4685103 11.616381,16.7529412 11.9264502,16.7529412 L14.5464568,16.7529412 C14.856526,16.7529412 15.1078867,16.4685103 15.1078867,16.1176471 L15.1078867,16.0472353 C15.1078867,14.5405294 19,14.4764706 19,10.4 C19,7.32941176 16.1839608,5 13.5480471,5 L13.5480471,5 Z" id="Shape" fill="#979797"></path>
                    
</svg>